
<!-- Generator: visioncortex VTracer 0.6.4 -->
<svg version="1.1" xmlns="http://www.w3.org/2000/svg" viewBox="0 0 390 444" preserveAspectRatio="xMidYMid meet">
<path d="M0 0 C128.7 0 257.4 0 390 0 C390 146.52 390 293.04 390 444 C261.3 444 132.6 444 0 444 C0 297.48 0 150.96 0 0 Z " fill="#172C44" transform="translate(0,0)"/>
<path d="M0 0 C128.7 0 257.4 0 390 0 C390 146.52 390 293.04 390 444 C261.3 444 132.6 444 0 444 C0 297.48 0 150.96 0 0 Z M43.566 79.98 C33.977 91.263 30.85 103.065 30.853 117.618 C30.849 118.58 30.845 119.543 30.842 120.534 C30.831 123.756 30.827 126.977 30.823 130.199 C30.817 132.51 30.81 134.822 30.803 137.133 C30.782 144.723 30.772 152.313 30.762 159.902 C30.758 162.519 30.754 165.136 30.749 167.752 C30.733 178.641 30.718 189.53 30.711 200.418 C30.709 203.241 30.707 206.063 30.705 208.886 C30.704 209.587 30.704 210.289 30.703 211.012 C30.695 222.36 30.67 233.707 30.637 245.055 C30.604 256.728 30.586 268.4 30.583 280.072 C30.581 286.617 30.572 293.161 30.547 299.706 C30.523 305.869 30.519 312.033 30.529 318.196 C30.53 320.449 30.524 322.702 30.51 324.955 C30.382 347.021 33.624 363.083 49.34 379.367 C59.543 389.465 72.662 394.171 86.941 394.267 C87.752 394.263 88.562 394.259 89.398 394.254 C90.288 394.257 91.179 394.26 92.096 394.263 C95.049 394.271 98.003 394.265 100.957 394.259 C103.086 394.262 105.216 394.265 107.346 394.269 C113.11 394.279 118.875 394.275 124.639 394.269 C130.685 394.264 136.73 394.268 142.776 394.271 C152.929 394.275 163.082 394.27 173.235 394.261 C184.953 394.25 196.672 394.253 208.391 394.264 C218.47 394.273 228.549 394.275 238.628 394.27 C244.64 394.266 250.652 394.266 256.664 394.273 C262.32 394.278 267.975 394.274 273.63 394.263 C275.699 394.26 277.768 394.261 279.836 394.265 C299.692 394.624 299.692 394.624 318.062 388 C318.699 387.644 319.335 387.288 319.99 386.922 C322.733 385.376 325.38 383.747 328 382 C328 381.34 328 380.68 328 380 C328.866 379.633 328.866 379.633 329.75 379.258 C340.086 373.479 344.722 360.679 348 350 C349.104 344.784 349.14 339.739 349.127 334.435 C349.129 333.001 349.129 333.001 349.132 331.537 C349.136 328.336 349.133 325.135 349.129 321.934 C349.131 319.637 349.133 317.341 349.135 315.044 C349.139 308.809 349.137 302.573 349.134 296.338 C349.132 289.814 349.134 283.291 349.136 276.767 C349.138 265.11 349.135 253.453 349.129 241.796 C349.125 231.23 349.126 220.664 349.13 210.099 C349.136 197.824 349.138 185.549 349.135 173.274 C349.133 166.778 349.133 160.283 349.136 153.787 C349.139 147.68 349.137 141.573 349.131 135.467 C349.13 133.225 349.13 130.982 349.133 128.74 C349.135 125.682 349.132 122.623 349.127 119.565 C349.13 118.231 349.13 118.231 349.134 116.871 C349.12 112.466 348.888 108.337 348 104 C347.34 104 346.68 104 346 104 C345.836 103.147 345.836 103.147 345.668 102.277 C344.102 94.649 341.599 88.357 337 82 C336.319 81.051 335.639 80.102 334.938 79.125 C325.132 67.63 311.249 61.478 296.568 60.207 C288.524 59.741 280.46 59.843 272.405 59.839 C270.326 59.834 268.247 59.829 266.168 59.824 C260.546 59.811 254.924 59.804 249.302 59.8 C245.784 59.797 242.266 59.793 238.748 59.788 C227.724 59.775 216.699 59.765 205.675 59.761 C192.98 59.757 180.285 59.739 167.589 59.71 C157.753 59.688 147.916 59.678 138.08 59.677 C132.215 59.676 126.35 59.67 120.485 59.652 C114.968 59.636 109.45 59.634 103.933 59.642 C101.916 59.643 99.899 59.639 97.883 59.629 C75.925 59.527 58.901 63.337 43.566 79.98 Z " fill="#F6F5F3" transform="translate(0,0)"/>
<path d="M0 0 C1.115 0.073 2.23 0.147 3.379 0.223 C13 1.175 13 1.175 16.688 5.375 C20.282 10.428 21.844 14.737 21 21 C18.855 29.188 14.057 35.369 9 42 C0.263 53.866 -5.364 66.596 -8.895 80.844 C-9.788 84.399 -10.979 87.76 -12.306 91.174 C-13.213 93.56 -13.928 95.983 -14.625 98.438 C-15.889 102.889 -15.889 102.889 -17 104 C-17.395 105.846 -17.742 107.702 -18.062 109.562 C-18.239 110.574 -18.416 111.586 -18.598 112.629 C-18.73 113.411 -18.863 114.194 -19 115 C-19.66 115 -20.32 115 -21 115 C-21.083 116.196 -21.165 117.392 -21.25 118.625 C-21.695 122.673 -22.628 126.356 -23.812 130.25 C-26.475 139.684 -28.166 149.37 -30 159 C-44.52 159 -59.04 159 -74 159 C-72.887 146.755 -72.887 146.755 -71.57 141.703 C-69.881 134.77 -68.844 127.814 -67.875 120.75 C-67.543 118.348 -67.207 115.947 -66.867 113.547 C-66.652 111.982 -66.652 111.982 -66.433 110.386 C-66 108 -66 108 -65 107 C-62.644 95.877 -61.691 84.798 -61.625 73.438 C-61.611 72.369 -61.598 71.3 -61.584 70.199 C-61.679 53.374 -68.301 42.435 -79.766 30.508 C-82.954 26.929 -84.838 24.293 -85.438 19.5 C-84.92 15.358 -84.146 13.732 -81 11 C-78.125 10.438 -78.125 10.438 -75 11 C-74.102 11.636 -73.203 12.271 -72.277 12.926 C-63.015 18.788 -48.179 19.229 -37.582 17.637 C-30.463 15.785 -25.468 10.673 -20 6 C-13.291 0.424 -8.674 -0.923 0 0 Z " fill="#F4F4F3" transform="translate(229,217)"/>
<path d="M0 0 C7.815 -0.232 15.628 -0.41 23.446 -0.518 C27.077 -0.57 30.705 -0.641 34.334 -0.754 C37.843 -0.864 41.348 -0.923 44.858 -0.949 C46.837 -0.976 48.815 -1.054 50.793 -1.133 C59.651 -1.138 59.651 -1.138 63.544 2.147 C65.588 4.677 67.311 7.224 69 10 C70.025 11.397 71.061 12.786 72.117 14.16 C72.834 15.125 72.834 15.125 73.565 16.11 C75.487 18.642 77.509 21.083 79.54 23.528 C86.318 31.695 92.563 40.143 98.554 48.901 C100.018 51.026 101.51 53.129 103.008 55.23 C103.944 56.57 104.879 57.909 105.812 59.25 C106.252 59.858 106.691 60.466 107.143 61.092 C108.962 63.748 110.047 65.369 109.805 68.641 C109.539 69.419 109.274 70.198 109 71 C108.092 76.356 107.683 79.957 110 85 C110.125 88.312 110.125 88.312 110 91 C107.21 91.852 105.614 92.253 102.875 91.125 C100.024 87.893 99.135 84.102 98 80 C95.69 79.67 93.38 79.34 91 79 C91.969 79.33 92.939 79.66 93.938 80 C94.948 80.66 95.959 81.32 97 82 C97.164 83.931 97.32 85.864 97.402 87.801 C98.906 93.332 105.453 96.969 110 100 C110.341 102.155 110.341 102.155 110.293 104.789 C110.283 105.73 110.274 106.671 110.264 107.641 C110.239 108.625 110.213 109.61 110.188 110.625 C110.167 112.114 110.167 112.114 110.146 113.633 C110.111 116.089 110.057 118.544 110 121 C105.545 121.495 105.545 121.495 101 122 C101.681 122.722 102.361 123.444 103.062 124.188 C105 127 105 127 105.125 129.312 C101.679 137.545 95.211 143.467 87.227 147.234 C80.229 149.641 73.263 148.063 66.559 145.41 C61.515 142.63 57.82 138.461 56 133 C55.905 130.347 55.862 127.716 55.859 125.062 C55.845 123.437 55.829 121.812 55.812 120.187 C55.803 119.339 55.794 118.49 55.784 117.616 C55.546 99.469 54.989 82.841 45.137 66.934 C44 65 44 65 44 63 C43.34 63 42.68 63 42 63 C40.72 61.109 39.527 59.159 38.375 57.188 C35.271 51.984 31.949 47.077 28.332 42.211 C24.709 37.222 21.271 32.108 17.807 27.008 C14.091 21.551 10.277 16.199 6.293 10.934 C5 9 5 9 5 7 C4.34 7 3.68 7 3 7 C0 2.615 0 2.615 0 0 Z " fill="#F5F4F3" transform="translate(99,81)"/>
<path d="M0 0 C4.481 -0.38 4.481 -0.38 6.773 1.298 C7.302 1.894 7.83 2.491 8.375 3.105 C8.968 3.76 9.561 4.414 10.172 5.088 C10.775 5.781 11.378 6.474 12 7.188 C13.208 8.536 14.416 9.883 15.625 11.23 C16.484 12.204 16.484 12.204 17.36 13.198 C18.794 14.773 20.326 16.259 21.871 17.727 C24.682 20.728 24.962 22.556 25.207 26.535 C24.735 32.152 21.921 37.078 19.52 42.09 C17.424 47.012 16.502 52.217 15.438 57.438 C15.021 59.436 14.603 61.435 14.184 63.434 C14.004 64.311 13.824 65.188 13.638 66.092 C13.141 68.359 12.587 70.614 12.011 72.862 C11.018 76.799 10.286 80.763 9.633 84.77 C9.386 86.242 9.14 87.715 8.893 89.188 C8.767 89.945 8.642 90.702 8.513 91.481 C6.31 104.73 3.914 117.886 1 131 C-4.94 131 -10.88 131 -17 131 C-16.328 126.589 -15.654 122.178 -14.974 117.768 C-14.743 116.27 -14.515 114.773 -14.287 113.275 C-13.958 111.11 -13.624 108.946 -13.289 106.781 C-12.991 104.833 -12.991 104.833 -12.686 102.846 C-12.087 99.49 -11.328 96.26 -10.476 92.966 C-9.727 89.873 -9.258 86.751 -8.781 83.605 C-8.678 82.933 -8.574 82.26 -8.468 81.566 C-8.142 79.441 -7.821 77.314 -7.5 75.188 C-7.075 72.389 -6.647 69.591 -6.219 66.793 C-6.116 66.116 -6.013 65.44 -5.908 64.743 C-5.306 60.822 -4.617 56.928 -3.855 53.035 C-2.992 48.395 -2.729 43.961 -2.812 39.25 C-2.813 38.196 -2.813 38.196 -2.814 37.121 C-2.444 29.49 -2.444 29.49 -5 23 C-5.073 20.303 -5.092 17.633 -5.062 14.938 C-5.058 14.179 -5.053 13.42 -5.049 12.639 C-5.037 10.759 -5.019 8.88 -5 7 C-4.34 7 -3.68 7 -3 7 C-2.691 6.216 -2.381 5.433 -2.062 4.625 C-1 2 -1 2 0 0 Z " fill="#F1F2F1" transform="translate(131,245)"/>
<path d="M0 0 C0.958 0.156 1.916 0.312 2.902 0.473 C8.261 1.24 13.656 1.344 19.061 1.518 C27.529 1.876 33.089 3.835 39 10 C43.24 15.607 42.456 22.291 42 29 C40.659 37.496 35.58 46.49 28.688 51.688 C24.058 54.771 20.71 55.155 15.188 55.125 C14.475 55.129 13.763 55.133 13.029 55.137 C9.227 55.13 5.695 54.915 2 54 C2.875 50.125 2.875 50.125 4 49 C5.35 48.728 6.705 48.483 8.062 48.25 C13.111 47.198 16.84 44.97 21 42 C18.028 43.125 15.666 44.223 13 46 C11.192 46.168 9.377 46.266 7.562 46.312 C2.946 46.569 2.946 46.569 -0.562 49.562 C-1.274 50.769 -1.274 50.769 -2 52 C-2.66 52 -3.32 52 -4 52 C-4.164 48.059 -4.043 44.75 -3 40.938 C-1.84 36.646 -1.182 32.892 -3 28.688 C-4.238 25.36 -4.111 22.601 -3.973 19.086 C-3.897 16.803 -3.897 16.803 -5 14 C-5.532 9.388 -5.171 6.783 -2.5 3.062 C-1.675 2.052 -0.85 1.041 0 0 Z " fill="#F3F3F2" transform="translate(217,150)"/>
<path d="M0 0 C1.675 0.286 3.344 0.618 5 1 C4.988 1.773 4.977 2.547 4.965 3.344 C4.913 9.35 5.095 15.064 6 21 C6.248 22.918 6.248 22.918 6.5 24.875 C6.823 27.896 6.823 27.896 8 30 C7.43 37.066 6.216 44.02 5 51 C5.804 50.196 6.609 49.391 7.438 48.562 C10.925 45.075 11.295 44.919 16.188 44.688 C21.427 44.287 23.876 43.093 28 40 C28.99 40.33 29.98 40.66 31 41 C26.385 44.937 22.369 47.724 16.25 48.438 C15.178 48.623 14.105 48.809 13 49 C12.34 50.32 11.68 51.64 11 53 C16.94 53.33 22.88 53.66 29 54 C29 54.33 29 54.66 29 55 C24.71 55.66 20.42 56.32 16 57 C16 58.32 16 59.64 16 61 C13.5 62.75 13.5 62.75 11 64 C14.3 64.33 17.6 64.66 21 65 C21 65.33 21 65.66 21 66 C20.322 65.991 19.644 65.982 18.945 65.973 C9.218 66.283 4.215 70.533 -3.082 76.535 C-3.872 77.165 -3.872 77.165 -4.678 77.807 C-6.182 79.008 -7.662 80.24 -9.141 81.473 C-12 83 -12 83 -15.359 82.246 C-16.666 81.629 -16.666 81.629 -18 81 C-18 80.34 -18 79.68 -18 79 C-18.66 79 -19.32 79 -20 79 C-19.67 80.32 -19.34 81.64 -19 83 C-22.63 83 -26.26 83 -30 83 C-29.67 82.01 -29.34 81.02 -29 80 C-29.99 79.34 -30.98 78.68 -32 78 C-30.966 77.888 -30.966 77.888 -29.91 77.773 C-21.412 76.584 -15.486 73.761 -9.625 67.438 C-9.089 66.633 -8.553 65.829 -8 65 C-7.103 63.732 -7.103 63.732 -6.188 62.438 C-4.808 60.14 -4.808 60.14 -5.188 57.938 C-6.04 55.905 -6.959 53.943 -8 52 C-5.043 50.522 -2.258 50.94 1 51 C1.93 38.324 1.93 38.324 -2.223 26.895 C-4.736 24.967 -7.188 23.446 -10 22 C-13.006 18.994 -12.596 16.176 -13 12 C-17.95 10.02 -17.95 10.02 -23 8 C-18.701 6.567 -15.165 7.287 -11 9 C-8.99 11.918 -8.164 14.433 -7.188 17.812 C-6.796 18.534 -6.404 19.256 -6 20 C-2.947 20.898 -2.947 20.898 0 21 C0.204 16.718 0.204 16.718 -1.062 12.688 C-2.439 8.74 -1.829 5.054 -1 1 C-0.67 0.67 -0.34 0.34 0 0 Z " fill="#1D3045" transform="translate(208,151)"/>
<path d="M0 0 C0.934 3.01 1.044 3.867 0 7 C-0.089 8.37 -0.124 9.744 -0.123 11.117 C-0.125 11.959 -0.127 12.801 -0.129 13.669 C-0.126 14.594 -0.123 15.519 -0.12 16.472 C-0.121 17.455 -0.122 18.437 -0.123 19.45 C-0.124 22.757 -0.119 26.064 -0.114 29.372 C-0.113 31.737 -0.113 34.102 -0.114 36.467 C-0.114 42.231 -0.11 47.996 -0.104 53.761 C-0.096 60.468 -0.095 67.175 -0.094 73.882 C-0.092 85.843 -0.085 97.804 -0.075 109.765 C-0.066 121.385 -0.059 133.006 -0.055 144.626 C-0.055 145.342 -0.054 146.058 -0.054 146.796 C-0.053 150.388 -0.052 153.98 -0.05 157.573 C-0.04 187.382 -0.022 217.191 0 247 C0.99 246.67 1.98 246.34 3 246 C2.34 248.31 1.68 250.62 1 253 C-1.989 250.531 -2.478 248.8 -3 245 C-3.14 241.813 -3.135 238.631 -3.127 235.442 C-3.129 234.474 -3.13 233.506 -3.132 232.509 C-3.136 229.263 -3.133 226.017 -3.129 222.772 C-3.131 220.446 -3.133 218.12 -3.135 215.794 C-3.139 209.474 -3.137 203.154 -3.134 196.833 C-3.132 190.893 -3.134 184.953 -3.135 179.012 C-3.138 166.528 -3.135 154.044 -3.129 141.561 C-3.125 130.852 -3.126 120.144 -3.13 109.435 C-3.136 96.998 -3.138 84.56 -3.135 72.122 C-3.133 65.539 -3.133 58.956 -3.136 52.373 C-3.139 46.183 -3.137 39.994 -3.131 33.804 C-3.13 31.532 -3.13 29.259 -3.133 26.986 C-3.135 23.886 -3.132 20.786 -3.127 17.685 C-3.129 16.784 -3.131 15.883 -3.134 14.954 C-3.12 10.521 -2.897 6.364 -2 2 C-1.34 2 -0.68 2 0 2 C0 1.34 0 0.68 0 0 Z " fill="#091120" transform="translate(34,100)"/>
<path d="M0 0 C1.675 0.286 3.344 0.618 5 1 C4.988 1.773 4.977 2.547 4.965 3.344 C4.913 9.35 5.095 15.064 6 21 C6.248 22.918 6.248 22.918 6.5 24.875 C6.823 27.896 6.823 27.896 8 30 C7.914 32.094 7.914 32.094 7.625 34.5 C7.535 35.294 7.445 36.088 7.352 36.906 C7 39 7 39 6 41 C4.68 41 3.36 41 2 41 C1.986 40.408 1.972 39.817 1.957 39.207 C1.709 35.105 1.528 32.672 -1.062 29.375 C-2.716 28.038 -4.38 26.712 -6.074 25.426 C-12.425 20.352 -12.425 20.352 -13 15.562 C-13 14.387 -13 13.211 -13 12 C-17.95 10.02 -17.95 10.02 -23 8 C-18.701 6.567 -15.165 7.287 -11 9 C-8.99 11.918 -8.164 14.433 -7.188 17.812 C-6.796 18.534 -6.404 19.256 -6 20 C-2.947 20.898 -2.947 20.898 0 21 C0.204 16.718 0.204 16.718 -1.062 12.688 C-2.439 8.74 -1.829 5.054 -1 1 C-0.67 0.67 -0.34 0.34 0 0 Z " fill="#2F3846" transform="translate(208,151)"/>
<path d="M0 0 C1 2 1 2 0.188 5.875 C-0.926 8.81 -1.551 9.775 -4.395 11.203 C-6.197 11.812 -8.002 12.408 -9.812 12.992 C-10.534 13.325 -11.256 13.657 -12 14 C-13.301 17.111 -13.301 17.111 -13 20 C-12.34 20 -11.68 20 -11 20 C-10.871 27.454 -10.871 27.454 -11.75 31.188 C-12.094 35.059 -10.377 36.047 -8 39 C-7.375 42.375 -7.375 42.375 -8 46 C-9.412 47.885 -10.964 49.528 -12.598 51.223 C-14.827 54.048 -14.856 56.467 -15 60 C-15.66 60 -16.32 60 -17 60 C-16.748 53.508 -16.233 50.079 -12 45 C-12.09 40.599 -13.328 38.37 -16 35 C-16 34.01 -16 33.02 -16 32 C-19.145 33.123 -20.052 34.079 -21.938 36.938 C-24.072 40.107 -25.525 41.485 -29 43 C-29.99 42.67 -30.98 42.34 -32 42 C-31.541 41.636 -31.082 41.273 -30.609 40.898 C-26.568 37.587 -23.871 34.402 -21 30 C-19.706 29.124 -19.706 29.124 -18.387 28.23 C-15.677 26.183 -15.677 26.183 -15.652 22.871 C-15.746 21.738 -15.841 20.605 -15.938 19.438 C-16.215 15.996 -16.215 15.996 -16 13 C-13.53 10.427 -11.956 9.989 -8.438 9.125 C-4.879 8.326 -4.879 8.326 -3.188 5.562 C-2.796 4.717 -2.404 3.871 -2 3 C-1.34 2.01 -0.68 1.02 0 0 Z " fill="#1D2434" transform="translate(215,238)"/>
<path d="M0 0 C0.875 -0.001 1.75 -0.002 2.651 -0.003 C5.576 -0.004 8.501 0.001 11.426 0.007 C13.525 0.007 15.625 0.007 17.724 0.006 C23.42 0.006 29.116 0.012 34.811 0.019 C40.765 0.025 46.719 0.026 52.673 0.027 C63.945 0.03 75.218 0.038 86.491 0.048 C99.325 0.059 112.159 0.065 124.993 0.07 C151.393 0.08 177.793 0.098 204.192 0.12 C204.192 0.45 204.192 0.78 204.192 1.12 C203.119 1.124 202.045 1.129 200.939 1.133 C174.842 1.236 148.746 1.345 122.649 1.46 C110.029 1.515 97.409 1.568 84.788 1.618 C73.791 1.66 62.794 1.707 51.796 1.757 C45.971 1.784 40.146 1.809 34.321 1.829 C28.842 1.849 23.362 1.873 17.883 1.901 C15.868 1.91 13.854 1.918 11.84 1.924 C9.096 1.932 6.352 1.946 3.608 1.962 C2.806 1.963 2.005 1.964 1.179 1.965 C-2.331 1.991 -5.425 2.241 -8.808 3.12 C-10.39 3.186 -11.975 3.206 -13.558 3.183 C-14.357 3.174 -15.156 3.165 -15.98 3.155 C-16.583 3.144 -17.186 3.132 -17.808 3.12 C-12.378 -0.5 -6.313 -0.023 0 0 Z " fill="#2A3547" transform="translate(88.80783081054688,59.87974548339844)"/>
<path d="M0 0 C0.99 0 1.98 0 3 0 C3.454 0.928 3.907 1.856 4.375 2.812 C5.942 6.039 5.942 6.039 8 9 C7.776 11.906 7.363 13.55 5.523 15.832 C3.761 18.34 3.326 20.246 2.812 23.25 C2.654 24.142 2.495 25.034 2.332 25.953 C2.222 26.629 2.113 27.304 2 28 C2.66 28 3.32 28 4 28 C3.938 26.907 3.876 25.814 3.812 24.688 C4 21 4 21 7 18 C6.67 21.3 6.34 24.6 6 28 C5.01 28.33 4.02 28.66 3 29 C2.67 29.66 2.34 30.32 2 31 C1.711 30.361 1.423 29.721 1.125 29.062 C0.172 26.848 0.172 26.848 -2 26 C-1.34 25.01 -0.68 24.02 0 23 C0 22.01 0 21.02 0 20 C0 18.333 0 16.667 0 15 C-0.66 15 -1.32 15 -2 15 C-1.649 14.216 -1.299 13.433 -0.938 12.625 C-0.628 11.759 -0.319 10.892 0 10 C-0.33 9.34 -0.66 8.68 -1 8 C-3.025 7.348 -3.025 7.348 -5 7 C-4.242 5.825 -3.468 4.66 -2.688 3.5 C-2.258 2.85 -1.829 2.201 -1.387 1.531 C-0.7 0.773 -0.7 0.773 0 0 Z " fill="#ECEFF0" transform="translate(196,270)"/>
<path d="M0 0 C0.99 0 1.98 0 3 0 C5.327 5.984 7.429 11.58 8 18 C7.34 17.67 6.68 17.34 6 17 C5.67 17.99 5.34 18.98 5 20 C3.701 21.693 2.371 23.364 1 25 C1 24.34 1 23.68 1 23 C0.01 23 -0.98 23 -2 23 C-2 23.66 -2 24.32 -2 25 C-2.99 24.67 -3.98 24.34 -5 24 C-4.01 22.515 -4.01 22.515 -3 21 C-2.34 21 -1.68 21 -1 21 C-1.66 20.01 -2.32 19.02 -3 18 C-2.977 15.082 -2.977 15.082 -2.625 11.812 C-2.514 10.726 -2.403 9.639 -2.289 8.52 C-2.194 7.688 -2.098 6.857 -2 6 C-1.34 6 -0.68 6 0 6 C0 4.02 0 2.04 0 0 Z " fill="#1C2F44" transform="translate(158,260)"/>
<path d="M0 0 C0.522 0.182 1.044 0.364 1.582 0.551 C7.657 2.626 13.793 4.364 20 6 C19.01 7.32 18.02 8.64 17 10 C22.169 9.594 22.169 9.594 27 8 C27 7.34 27 6.68 27 6 C28.32 6.33 29.64 6.66 31 7 C31 7.66 31 8.32 31 9 C31.66 9.33 32.32 9.66 33 10 C22.391 14.868 9.927 11.356 -1 9 C-1 8.01 -1 7.02 -1 6 C-0.01 5.67 0.98 5.34 2 5 C2 5.66 2 6.32 2 7 C3.32 6.34 4.64 5.68 6 5 C2.99 4.066 2.133 3.956 -1 5 C-0.67 3.35 -0.34 1.7 0 0 Z " fill="#111B2A" transform="translate(161,224)"/>
<path d="M0 0 C0.433 0.474 0.866 0.949 1.312 1.438 C3.023 3.237 3.023 3.237 6 4 C5.675 7.002 5.318 8.635 3.312 10.938 C1 12 1 12 -2.25 11.188 C-3.157 10.796 -4.065 10.404 -5 10 C-5 9.34 -5 8.68 -5 8 C-5.66 8 -6.32 8 -7 8 C-6.67 9.32 -6.34 10.64 -6 12 C-9.63 12 -13.26 12 -17 12 C-16.67 11.01 -16.34 10.02 -16 9 C-16.99 8.34 -17.98 7.68 -19 7 C-18.299 6.914 -17.597 6.827 -16.875 6.738 C-10.187 5.748 -5.414 4.064 0 0 Z " fill="#1C2E43" transform="translate(195,222)"/>
<path d="M0 0 C0.33 0 0.66 0 1 0 C1 2.97 1 5.94 1 9 C2.32 9 3.64 9 5 9 C4.859 10.625 4.712 12.25 4.562 13.875 C4.481 14.78 4.4 15.685 4.316 16.617 C4 19 4 19 3 21 C3.66 21.33 4.32 21.66 5 22 C2.69 22.33 0.38 22.66 -2 23 C-2.66 26.3 -3.32 29.6 -4 33 C-6.475 33.495 -6.475 33.495 -9 34 C-8.484 33.093 -7.969 32.185 -7.438 31.25 C-5.804 28.265 -5.804 28.265 -6.188 25.875 C-7.055 23.873 -7.97 21.923 -9 20 C-7 19 -7 19 0 19 C0 12.73 0 6.46 0 0 Z " fill="#243141" transform="translate(209,183)"/>
<path d="M0 0 C0.934 3.01 1.044 3.867 0 7 C-0.121 9.966 -0.185 12.911 -0.205 15.878 C-0.215 16.785 -0.225 17.693 -0.235 18.628 C-0.267 21.631 -0.292 24.634 -0.316 27.637 C-0.337 29.718 -0.358 31.798 -0.379 33.879 C-0.435 39.358 -0.484 44.838 -0.532 50.317 C-0.582 55.908 -0.638 61.498 -0.693 67.088 C-0.801 78.059 -0.902 89.029 -1 100 C-1.33 100 -1.66 100 -2 100 C-2.154 88.108 -2.302 76.217 -2.443 64.325 C-2.509 58.803 -2.576 53.281 -2.648 47.759 C-2.718 42.43 -2.782 37.1 -2.843 31.77 C-2.867 29.737 -2.893 27.705 -2.921 25.672 C-2.959 22.824 -2.991 19.975 -3.022 17.126 C-3.035 16.288 -3.048 15.449 -3.061 14.585 C-3.1 10.265 -2.873 6.256 -2 2 C-1.34 2 -0.68 2 0 2 C0 1.34 0 0.68 0 0 Z " fill="#121F32" transform="translate(34,100)"/>
<path d="M0 0 C0 0.99 0 1.98 0 3 C-0.66 3 -1.32 3 -2 3 C-2 3.66 -2 4.32 -2 5 C1.3 4.67 4.6 4.34 8 4 C6 6 6 6 2.48 6.23 C1.049 6.226 -0.382 6.212 -1.812 6.188 C-2.525 6.187 -3.237 6.186 -3.971 6.186 C-7.765 6.154 -11.312 5.906 -15 5 C-14.125 1.125 -14.125 1.125 -13 0 C-11.578 -0.447 -10.136 -0.834 -8.688 -1.188 C-7.908 -1.387 -7.128 -1.587 -6.324 -1.793 C-3.58 -2.037 -2.314 -1.424 0 0 Z " fill="#EFF5F8" transform="translate(234,199)"/>
<path d="M0 0 C2.952 2.748 5.295 5.32 7 9 C6.812 11.25 6.812 11.25 6 14 C5.638 15.602 5.284 17.207 4.938 18.812 C4.626 20.208 4.313 21.604 4 23 C2 21.188 2 21.188 0 19 C0 16 0 16 2 14 C1.34 13.67 0.68 13.34 0 13 C0 8.667 0 4.333 0 0 Z " fill="#E9EAEE" transform="translate(202,138)"/>
<path d="M0 0 C0.99 0 1.98 0 3 0 C3 0.66 3 1.32 3 2 C2.34 2 1.68 2 1 2 C1.66 2.66 2.32 3.32 3 4 C3.66 2.68 4.32 1.36 5 0 C6.65 1.98 8.3 3.96 10 6 C9.01 6.495 9.01 6.495 8 7 C8.278 7.928 8.278 7.928 8.562 8.875 C9 11 9 11 8 13 C7.34 13 6.68 13 6 13 C5.67 13.66 5.34 14.32 5 15 C4.567 14.237 4.134 13.474 3.688 12.688 C2.181 10.048 2.181 10.048 0.375 8.438 C-1.285 6.702 -1.597 5.335 -2 3 C-1.34 3 -0.68 3 0 3 C0 2.01 0 1.02 0 0 Z " fill="#1F2F44" transform="translate(150,253)"/>
<path d="M0 0 C1.875 0.312 1.875 0.312 4 1 C6.208 4.313 6.197 4.835 5.688 8.562 C5.588 9.348 5.489 10.133 5.387 10.941 C5 13 5 13 4 15 C2.68 15 1.36 15 0 15 C-0.061 14.397 -0.121 13.793 -0.184 13.172 C-0.309 11.973 -0.309 11.973 -0.438 10.75 C-0.519 9.961 -0.6 9.172 -0.684 8.359 C-0.976 6.176 -1.421 4.123 -2 2 C-1.34 2 -0.68 2 0 2 C0 1.34 0 0.68 0 0 Z " fill="#142032" transform="translate(210,177)"/>
<path d="M0 0 C8.974 0.343 8.974 0.343 12.438 2.562 C13.883 4.818 14.524 6.54 15.312 9.062 C16.137 11.551 16.553 12.696 18.742 14.184 C20.883 15.122 20.883 15.122 24 16 C24 16.33 24 16.66 24 17 C22.395 16.913 20.791 16.804 19.188 16.688 C18.294 16.629 17.401 16.571 16.48 16.512 C13.62 15.922 12.677 15.366 11 13 C10.33 10.327 10.226 7.762 10 5 C5.05 3.02 5.05 3.02 0 1 C0 0.67 0 0.34 0 0 Z " fill="#1A1C2C" transform="translate(185,158)"/>
<path d="M0 0 C2.27 3.404 2.365 5.165 2.625 9.188 C2.7 10.274 2.775 11.361 2.852 12.48 C2.901 13.312 2.95 14.143 3 15 C3.33 15 3.66 15 4 15 C4 19 4 23 4 27 C3.01 27 2.02 27 1 27 C0.67 25.68 0.34 24.36 0 23 C0.99 22.67 1.98 22.34 3 22 C-0.003 21.668 -0.003 21.668 -1.688 23.5 C-2.121 23.995 -2.554 24.49 -3 25 C-2.867 24.368 -2.734 23.737 -2.598 23.086 C-1.083 15.413 -0.433 7.803 0 0 Z " fill="#142030" transform="translate(259,165)"/>
<path d="M0 0 C2.562 2.188 2.562 2.188 5 5 C4.812 7.812 4.812 7.812 4 10 C4.598 9.773 5.196 9.546 5.812 9.312 C6.895 9.158 6.895 9.158 8 9 C9.75 10.438 9.75 10.438 11 12 C7.713 12.8 6.29 13.097 3 12 C3 12.66 3 13.32 3 14 C0.532 12.848 -1.048 11.952 -3 10 C-2.67 9.67 -2.34 9.34 -2 9 C-2.66 8.67 -3.32 8.34 -4 8 C-4 7.01 -4 6.02 -4 5 C-3.01 5 -2.02 5 -1 5 C-0.67 3.35 -0.34 1.7 0 0 Z " fill="#243248" transform="translate(157,218)"/>
<path d="M0 0 C2.756 4.134 3.108 6.052 3 11 C0.085 11.891 -1.419 12.258 -4.25 11 C-6.711 8.188 -6.725 5.65 -7 2 C-4.525 2.99 -4.525 2.99 -2 4 C-1.67 3.01 -1.34 2.02 -1 1 C-0.67 0.67 -0.34 0.34 0 0 Z " fill="#EDEFF2" transform="translate(206,161)"/>
<path d="M0 0 C2.875 0.438 2.875 0.438 4.875 2.438 C3.885 2.768 2.895 3.097 1.875 3.438 C1.215 3.107 0.555 2.778 -0.125 2.438 C-2.533 5.949 -3.491 8.164 -3.125 12.438 C-2.465 12.768 -1.805 13.097 -1.125 13.438 C-1.125 15.417 -1.125 17.398 -1.125 19.438 C-7.005 13.708 -7.005 13.708 -7.438 9.125 C-6.988 3.82 -5.516 0.772 0 0 Z " fill="#E1E3E6" transform="translate(151.125,227.5625)"/>
<path d="M0 0 C0.33 0 0.66 0 1 0 C1.33 5.94 1.66 11.88 2 18 C2.33 18 2.66 18 3 18 C3 23 3 28 3 33 C3.33 33.99 3.66 34.98 4 36 C3.062 38.188 3.062 38.188 2 40 C-0.561 36.155 -0.255 32.175 -0.195 27.734 C-0.192 26.941 -0.19 26.148 -0.187 25.33 C-0.176 22.803 -0.15 20.277 -0.125 17.75 C-0.115 16.034 -0.106 14.318 -0.098 12.602 C-0.076 8.401 -0.041 4.201 0 0 Z " fill="#E4E7EA" transform="translate(155,178)"/>
<path d="M0 0 C0.66 0.33 1.32 0.66 2 1 C1 3 0 5 -1 7 C-0.34 7 0.32 7 1 7 C0.67 8.32 0.34 9.64 0 11 C-0.33 10.01 -0.66 9.02 -1 8 C-1.99 8 -2.98 8 -4 8 C-4 7.34 -4 6.68 -4 6 C-4.598 6.33 -5.196 6.66 -5.812 7 C-8 8 -8 8 -11 8 C-11 6.68 -11 5.36 -11 4 C-10.01 4 -9.02 4 -8 4 C-7.67 3.01 -7.34 2.02 -7 1 C-4.506 -0.247 -2.763 -0.138 0 0 Z " fill="#F7F6F5" transform="translate(195,278)"/>
<path d="M0 0 C1.418 0.454 2.834 0.914 4.25 1.375 C5.433 1.758 5.433 1.758 6.641 2.148 C12.661 4.321 12.661 4.321 14 7 C11.69 7.33 9.38 7.66 7 8 C7 8.66 7 9.32 7 10 C4.36 9.67 1.72 9.34 -1 9 C-1 8.01 -1 7.02 -1 6 C-0.01 5.67 0.98 5.34 2 5 C2 5.66 2 6.32 2 7 C3.32 6.34 4.64 5.68 6 5 C2.99 4.066 2.133 3.956 -1 5 C-0.67 3.35 -0.34 1.7 0 0 Z " fill="#202E42" transform="translate(161,224)"/>
<path d="M0 0 C0.66 0.33 1.32 0.66 2 1 C3.047 6.148 3.153 11.21 3.125 16.438 C3.129 17.15 3.133 17.862 3.137 18.596 C3.128 23.477 2.686 28.167 2 33 C1.67 33 1.34 33 1 33 C1 26.07 1 19.14 1 12 C0.67 15.63 0.34 19.26 0 23 C-4.388 16.418 -1.368 7.327 0 0 Z " fill="#495565" transform="translate(126,268)"/>
<path d="M0 0 C3.242 2.674 4.836 4.196 5.688 8.375 C4.869 12.688 3.361 14.153 0.402 17.223 C-1.827 20.048 -1.856 22.467 -2 26 C-2.66 26 -3.32 26 -4 26 C-3.748 19.508 -3.233 16.079 1 11 C0.842 7.887 0.842 7.887 0 5 C0 3.333 0 1.667 0 0 Z " fill="#2A313B" transform="translate(202,272)"/>
<path d="M0 0 C2.281 3.421 2.219 4.682 2.125 8.688 C2.107 9.681 2.089 10.675 2.07 11.699 C2.036 12.838 2.036 12.838 2 14 C0.68 13.67 -0.64 13.34 -2 13 C-2 13.66 -2 14.32 -2 15 C-3.625 15.812 -3.625 15.812 -6 16 C-8.246 14.532 -10.024 12.841 -12 11 C-11.423 10.876 -10.845 10.752 -10.25 10.625 C-6.816 9.671 -4.609 9.036 -2.75 5.875 C-2.379 4.947 -2.379 4.947 -2 4 C-1.67 5.32 -1.34 6.64 -1 8 C-0.174 5.108 0 3.113 0 0 Z " fill="#293445" transform="translate(212,164)"/>
<path d="M0 0 C1.125 1.562 1.125 1.562 2 4 C1.125 7.75 1.125 7.75 0 11 C-0.66 11 -1.32 11 -2 11 C-2.227 11.577 -2.454 12.155 -2.688 12.75 C-4.337 15.578 -6.397 17.048 -9 19 C-9.66 19.66 -10.32 20.32 -11 21 C-10.503 16.256 -8.256 13.112 -5.5 9.375 C-2.243 4.973 -2.243 4.973 0 0 Z " fill="#152335" transform="translate(247,243)"/>
<path d="M0 0 C1.146 0.001 2.291 0.003 3.472 0.004 C7.119 0.01 10.767 0.022 14.414 0.035 C16.892 0.04 19.37 0.045 21.848 0.049 C27.911 0.06 33.975 0.077 40.039 0.098 C40.039 0.428 40.039 0.758 40.039 1.098 C39.447 1.108 38.854 1.118 38.244 1.129 C32.079 1.237 25.915 1.352 19.751 1.47 C17.45 1.513 15.149 1.555 12.849 1.595 C9.542 1.653 6.236 1.716 2.93 1.781 C1.9 1.798 0.871 1.815 -0.189 1.832 C-1.15 1.852 -2.111 1.872 -3.101 1.892 C-4.366 1.916 -4.366 1.916 -5.658 1.939 C-7.88 2.092 -9.816 2.524 -11.961 3.098 C-13.543 3.163 -15.128 3.183 -16.711 3.16 C-17.51 3.151 -18.309 3.142 -19.133 3.133 C-19.736 3.121 -20.339 3.11 -20.961 3.098 C-14.762 -1.035 -7.196 -0.034 0 0 Z " fill="#303C4E" transform="translate(91.9609375,59.90234375)"/>
<path d="M0 0 C1 2 1 2 0.188 5.875 C-0.92 8.79 -1.51 9.765 -4.359 11.133 C-6.155 11.709 -7.95 12.284 -9.746 12.859 C-12.14 13.803 -12.14 13.803 -13.098 16.016 C-13.731 18.481 -13.731 18.481 -14 22 C-16 20 -16 20 -16.375 16.562 C-16 13 -16 13 -14.438 11.188 C-12 10 -12 10 -8.438 9.125 C-4.879 8.326 -4.879 8.326 -3.188 5.562 C-2.796 4.717 -2.404 3.871 -2 3 C-1.34 2.01 -0.68 1.02 0 0 Z " fill="#1E232C" transform="translate(215,238)"/>
<path d="M0 0 C2.64 0.33 5.28 0.66 8 1 C7.67 2.32 7.34 3.64 7 5 C6.34 4.67 5.68 4.34 5 4 C4.381 5.392 4.381 5.392 3.75 6.812 C2.034 9.938 1.108 11.354 -2 13 C-4.75 13.188 -4.75 13.188 -7 13 C-5.68 12.67 -4.36 12.34 -3 12 C-3 11.01 -3 10.02 -3 9 C-4.32 8.67 -5.64 8.34 -7 8 C-4.36 7.34 -1.72 6.68 1 6 C0.67 4.02 0.34 2.04 0 0 Z " fill="#E1E3E5" transform="translate(210,235)"/>
<path d="M0 0 C0.99 0.33 1.98 0.66 3 1 C-2.793 5.941 -7.485 7.988 -15 9 C-15.66 9.66 -16.32 10.32 -17 11 C-19.125 10.625 -19.125 10.625 -21 10 C-19.688 7.562 -19.688 7.562 -17 5 C-14.22 4.54 -11.509 4.433 -8.695 4.316 C-4.869 3.867 -3.032 2.274 0 0 Z " fill="#090D18" transform="translate(236,191)"/>
<path d="M0 0 C1 3 1 3 -0.215 5.699 C-0.783 6.685 -1.352 7.671 -1.938 8.688 C-2.503 9.681 -3.069 10.675 -3.652 11.699 C-4.319 12.838 -4.319 12.838 -5 14 C-6.5 12.625 -6.5 12.625 -8 11 C-8 10.34 -8 9.68 -8 9 C-7.01 9 -6.02 9 -5 9 C-5.516 8.051 -6.031 7.103 -6.562 6.125 C-7.037 5.094 -7.511 4.062 -8 3 C-6.183 -0.634 -3.702 -0.097 0 0 Z " fill="#EEF1F1" transform="translate(40,82)"/>
<path d="M0 0 C0.33 0 0.66 0 1 0 C1.33 11.55 1.66 23.1 2 35 C3.485 34.505 3.485 34.505 5 34 C4.34 36.31 3.68 38.62 3 41 C0.99 39.343 0.088 38.366 -0.527 35.8 C-1.083 28.101 -0.924 20.518 -0.562 12.812 C-0.51 11.574 -0.458 10.336 -0.404 9.061 C-0.276 6.04 -0.141 3.02 0 0 Z " fill="#162234" transform="translate(32,312)"/>
<path d="M0 0 C0.99 0 1.98 0 3 0 C6 5.625 6 5.625 6 9 C5.402 8.794 4.804 8.587 4.188 8.375 C1.715 7.693 1.715 7.693 -1 10 C-1 9.34 -1 8.68 -1 8 C-2.32 7.67 -3.64 7.34 -5 7 C-4.242 5.825 -3.468 4.66 -2.688 3.5 C-2.258 2.85 -1.829 2.201 -1.387 1.531 C-0.7 0.773 -0.7 0.773 0 0 Z " fill="#E6E8EC" transform="translate(196,270)"/>
<path d="M0 0 C2.429 3.644 2.162 5.712 2 10 C1.01 9.67 0.02 9.34 -1 9 C-1 8.01 -1 7.02 -1 6 C-0.34 6 0.32 6 1 6 C1 5.34 1 4.68 1 4 C0.01 4 -0.98 4 -2 4 C-2 5.65 -2 7.3 -2 9 C-5 9 -5 9 -7.188 7 C-7.786 6.34 -8.384 5.68 -9 5 C-8.67 4.01 -8.34 3.02 -8 2 C-5.525 3.98 -5.525 3.98 -3 6 C-3.495 5.567 -3.99 5.134 -4.5 4.688 C-6 3 -6 3 -6 0 C-3 -1 -3 -1 0 0 Z " fill="#162A3E" transform="translate(152,249)"/>
<path d="M0 0 C0.218 6.002 -0.494 11.192 -2 17 C-2.33 17 -2.66 17 -3 17 C-3.33 14.36 -3.66 11.72 -4 9 C-4.99 9 -5.98 9 -7 9 C-7 8.01 -7 7.02 -7 6 C-6.34 6 -5.68 6 -5 6 C-5 4.35 -5 2.7 -5 1 C-3 0 -3 0 0 0 Z " fill="#15253A" transform="translate(120,336)"/>
<path d="M0 0 C1.27 3.809 0.521 5.816 -0.438 9.688 C-0.725 10.867 -1.012 12.046 -1.309 13.262 C-1.537 14.165 -1.765 15.069 -2 16 C-5.658 13.561 -6.088 12.228 -7 8 C-6.125 5.125 -6.125 5.125 -5 3 C-4.01 3 -3.02 3 -2 3 C-1.34 2.01 -0.68 1.02 0 0 Z " fill="#2A3A4F" transform="translate(159,349)"/>
<path d="M0 0 C2 1 2 1 2.887 3.363 C3.151 4.337 3.415 5.31 3.688 6.312 C3.959 7.278 4.231 8.244 4.512 9.238 C4.992 11.952 4.907 13.437 4 16 C4 15.34 4 14.68 4 14 C3.34 14 2.68 14 2 14 C2.33 16.31 2.66 18.62 3 21 C1.68 21 0.36 21 -1 21 C-2.41 16.065 -1.217 13.434 1 9 C1 5.727 0.701 3.153 0 0 Z " fill="#364559" transform="translate(163,266)"/>
<path d="M0 0 C0.99 0.33 1.98 0.66 3 1 C2.34 1.66 1.68 2.32 1 3 C1.33 3.99 1.66 4.98 2 6 C2.66 6 3.32 6 4 6 C4.33 7.32 4.66 8.64 5 10 C3.02 10.99 3.02 10.99 1 12 C1 11.01 1 10.02 1 9 C-0.32 8.67 -1.64 8.34 -3 8 C-3.75 6.25 -3.75 6.25 -4 4 C-2.062 1.75 -2.062 1.75 0 0 Z " fill="#17263B" transform="translate(200,217)"/>
<path d="M0 0 C0.707 0.158 1.413 0.317 2.141 0.48 C5.042 1.008 7.794 1.206 10.738 1.316 C11.805 1.358 12.872 1.4 13.971 1.443 C15.073 1.483 16.176 1.522 17.312 1.562 C18.996 1.627 18.996 1.627 20.713 1.693 C23.475 1.799 26.237 1.901 29 2 C29 2.66 29 3.32 29 4 C27.824 3.979 26.649 3.959 25.438 3.938 C22.544 3.927 20.019 4.142 17.125 4.562 C14 5 14 5 12 4 C9.723 4.009 7.465 4.13 5.191 4.258 C3 4 3 4 1.215 2.555 C0 1 0 1 0 0 Z " fill="#F8FBFC" transform="translate(73,393)"/>
<path d="M0 0 C1.988 -0.328 1.988 -0.328 4.312 -0.25 C5.112 -0.224 5.911 -0.198 6.734 -0.172 C9.219 0.017 11.586 0.377 14 1 C14 1.99 14 2.98 14 4 C11.125 4.625 11.125 4.625 8 5 C7.34 4.34 6.68 3.68 6 3 C5.34 3.66 4.68 4.32 4 5 C2.02 4.34 0.04 3.68 -2 3 C-1.34 2.01 -0.68 1.02 0 0 Z " fill="#F1F6F8" transform="translate(220,217)"/>
<path d="M0 0 C0 1.65 0 3.3 0 5 C-0.969 4.814 -1.939 4.629 -2.938 4.438 C-3.948 4.293 -4.959 4.149 -6 4 C-6.33 4.33 -6.66 4.66 -7 5 C-8.666 5.041 -10.334 5.043 -12 5 C-12 4.01 -12 3.02 -12 2 C-10.756 1.465 -9.504 0.948 -8.25 0.438 C-7.554 0.147 -6.858 -0.143 -6.141 -0.441 C-3.7 -1.078 -2.36 -0.802 0 0 Z " fill="#17253D" transform="translate(70,66)"/>
<path d="M0 0 C0.66 0 1.32 0 2 0 C1.859 1.792 1.712 3.584 1.562 5.375 C1.481 6.373 1.4 7.37 1.316 8.398 C1 11 1 11 0 13 C0.66 13 1.32 13 2 13 C1.938 11.907 1.876 10.814 1.812 9.688 C2 6 2 6 5 3 C4.67 6.3 4.34 9.6 4 13 C3.01 13.33 2.02 13.66 1 14 C0.67 14.66 0.34 15.32 0 16 C-0.289 15.361 -0.577 14.721 -0.875 14.062 C-1.828 11.848 -1.828 11.848 -4 11 C-3.34 10.01 -2.68 9.02 -2 8 C-2 8.66 -2 9.32 -2 10 C-1.34 10 -0.68 10 0 10 C-0.084 9.362 -0.168 8.724 -0.254 8.066 C-0.356 7.24 -0.458 6.414 -0.562 5.562 C-0.667 4.739 -0.771 3.915 -0.879 3.066 C-0.919 2.384 -0.959 1.703 -1 1 C-0.67 0.67 -0.34 0.34 0 0 Z " fill="#C3C6C8" transform="translate(198,285)"/>
<path d="M0 0 C0.33 0 0.66 0 1 0 C1 1.98 1 3.96 1 6 C0.34 6 -0.32 6 -1 6 C-0.794 6.949 -0.587 7.897 -0.375 8.875 C-0.251 9.906 -0.127 10.938 0 12 C-0.66 12.66 -1.32 13.32 -2 14 C-2.103 14.66 -2.206 15.32 -2.312 16 C-2.539 16.66 -2.766 17.32 -3 18 C-5.543 19.125 -5.543 19.125 -8 20 C-7.511 18.84 -7.511 18.84 -7.012 17.656 C-4.558 11.808 -2.176 5.957 0 0 Z " fill="#D0D7DD" transform="translate(347,350)"/>
<path d="M0 0 C0.99 0 1.98 0 3 0 C3.532 1.266 4.05 2.538 4.562 3.812 C4.853 4.52 5.143 5.228 5.441 5.957 C6 8 6 8 5 11 C4.67 9.35 4.34 7.7 4 6 C3.34 6 2.68 6 2 6 C1.34 8.64 0.68 11.28 0 14 C-0.33 14 -0.66 14 -1 14 C-1.33 11.36 -1.66 8.72 -2 6 C-1.34 6 -0.68 6 0 6 C0 4.02 0 2.04 0 0 Z " fill="#152436" transform="translate(158,260)"/>
<path d="M0 0 C0.99 0.99 1.98 1.98 3 3 C2.01 4.485 2.01 4.485 1 6 C1 5.34 1 4.68 1 4 C0.34 4 -0.32 4 -1 4 C-1 4.99 -1 5.98 -1 7 C-0.01 7.33 0.98 7.66 2 8 C2 8.66 2 9.32 2 10 C1.423 9.691 0.845 9.381 0.25 9.062 C-1.934 7.933 -1.934 7.933 -4.188 7.5 C-4.786 7.335 -5.384 7.17 -6 7 C-6.33 6.34 -6.66 5.68 -7 5 C-5.688 3.5 -5.688 3.5 -4 2 C-3.01 2 -2.02 2 -1 2 C-0.67 1.34 -0.34 0.68 0 0 Z " fill="#213345" transform="translate(147,245)"/>
<path d="M0 0 C1.32 0.33 2.64 0.66 4 1 C4 1.66 4 2.32 4 3 C4.66 3.33 5.32 3.66 6 4 C1.923 5.95 -1.317 6.216 -5.812 6.125 C-6.974 6.107 -8.135 6.089 -9.332 6.07 C-10.212 6.047 -11.093 6.024 -12 6 C-8.656 4.212 -5.753 3.571 -2 3 C-1.34 2.67 -0.68 2.34 0 2 C0 1.34 0 0.68 0 0 Z " fill="#0E2234" transform="translate(188,230)"/>
<path d="M0 0 C0.33 0 0.66 0 1 0 C1.456 1.986 1.911 3.971 2.367 5.957 C2.98 8.277 2.98 8.277 5 11 C4.625 13.688 4.625 13.688 4 16 C3.01 15.67 2.02 15.34 1 15 C1 14.34 1 13.68 1 13 C0.34 12.67 -0.32 12.34 -1 12 C-0.67 11.34 -0.34 10.68 0 10 C-0.66 9.67 -1.32 9.34 -2 9 C-1.34 9 -0.68 9 0 9 C0 6.03 0 3.06 0 0 Z " fill="#15273B" transform="translate(142,232)"/>
<path d="M0 0 C0.934 3.01 1.044 3.867 0 7 C-0.147 8.626 -0.247 10.256 -0.316 11.887 C-0.358 12.825 -0.4 13.762 -0.443 14.729 C-0.502 16.193 -0.502 16.193 -0.562 17.688 C-0.606 18.676 -0.649 19.664 -0.693 20.682 C-0.799 23.121 -0.901 25.56 -1 28 C-1.33 28 -1.66 28 -2 28 C-2.198 24.792 -2.382 21.584 -2.562 18.375 C-2.619 17.471 -2.675 16.568 -2.732 15.637 C-2.991 10.919 -3.043 6.651 -2 2 C-1.34 2 -0.68 2 0 2 C0 1.34 0 0.68 0 0 Z " fill="#162232" transform="translate(34,100)"/>
<path d="M0 0 C3.845 3.549 7.151 7.613 10 12 C10 12.66 10 13.32 10 14 C9.01 14 8.02 14 7 14 C6.938 13.072 6.938 13.072 6.875 12.125 C6.586 11.424 6.297 10.722 6 10 C3.004 8.695 3.004 8.695 0 8 C-0.8 4.713 -1.097 3.29 0 0 Z " fill="#202E3B" transform="translate(106,93)"/>
<path d="M0 0 C0.66 0 1.32 0 2 0 C3.564 3.128 3.184 6.444 3.188 9.875 C3.2 10.596 3.212 11.316 3.225 12.059 C3.236 16.186 2.894 18.212 1 22 C0.67 14.74 0.34 7.48 0 0 Z " fill="#162234" transform="translate(165,280)"/>
<path d="M0 0 C0.99 0.33 1.98 0.66 3 1 C3.167 5.921 3.248 9.503 1 14 C-1.667 10 -1.667 10 -2 7 C-1.411 4.646 -0.754 2.307 0 0 Z " fill="#373E4A" transform="translate(201,257)"/>
<path d="M0 0 C0.66 0 1.32 0 2 0 C2.688 2.812 2.688 2.812 3 6 C2.515 6.454 2.031 6.907 1.531 7.375 C-0.242 8.933 -0.242 8.933 -0.293 11.48 C-0.258 12.374 -0.223 13.267 -0.188 14.188 C-0.16 15.089 -0.133 15.99 -0.105 16.918 C-0.071 17.605 -0.036 18.292 0 19 C-0.66 19 -1.32 19 -2 19 C-2.054 16.583 -2.094 14.167 -2.125 11.75 C-2.142 11.068 -2.159 10.386 -2.176 9.684 C-2.212 5.939 -2.079 3.176 0 0 Z " fill="#F4F7F9" transform="translate(129,248)"/>
<path d="M0 0 C0.33 0 0.66 0 1 0 C1 2.97 1 5.94 1 9 C2.32 9 3.64 9 5 9 C4.67 12.3 4.34 15.6 4 19 C3.34 17.68 2.68 16.36 2 15 C1.34 15.99 0.68 16.98 0 18 C0 12.06 0 6.12 0 0 Z " fill="#424A54" transform="translate(209,183)"/>
<path d="M0 0 C0.66 1.32 1.32 2.64 2 4 C2.66 4 3.32 4 4 4 C5.062 6.375 5.062 6.375 6 9 C5.67 9.66 5.34 10.32 5 11 C1.302 9.767 1.065 8.799 -0.688 5.438 C-1.124 4.611 -1.561 3.785 -2.012 2.934 C-2.338 2.296 -2.664 1.657 -3 1 C-2.01 0.67 -1.02 0.34 0 0 Z " fill="#233344" transform="translate(100,84)"/>
<path d="M0 0 C1.279 -0.062 2.558 -0.124 3.875 -0.188 C4.954 -0.24 4.954 -0.24 6.055 -0.293 C6.697 -0.196 7.339 -0.1 8 0 C8.66 0.99 9.32 1.98 10 3 C10.99 3.66 11.98 4.32 13 5 C9.37 5 5.74 5 2 5 C2.33 4.01 2.66 3.02 3 2 C2.01 1.34 1.02 0.68 0 0 Z M10 1 C10.66 1 11.32 1 12 1 C12 1.66 12 2.32 12 3 C11.34 3 10.68 3 10 3 C10 2.34 10 1.68 10 1 Z " fill="#1D3143" transform="translate(176,229)"/>
<path d="M0 0 C0.99 0.33 1.98 0.66 3 1 C0.912 4.956 -1.228 7.548 -5 10 C-5.99 9.67 -6.98 9.34 -8 9 C-7.546 8.402 -7.093 7.804 -6.625 7.188 C-5.367 5.494 -4.17 3.755 -3 2 C-2.01 2 -1.02 2 0 2 C0 1.34 0 0.68 0 0 Z " fill="#E6E8ED" transform="translate(249,193)"/>
<path d="M0 0 C0.66 0.33 1.32 0.66 2 1 C1.744 2.607 1.469 4.21 1.188 5.812 C1.037 6.706 0.886 7.599 0.73 8.52 C-0.054 11.183 -0.886 12.257 -3 14 C-4.47 8.52 -3.486 5.876 -1 1 C-0.67 0.67 -0.34 0.34 0 0 Z " fill="#E7EDF3" transform="translate(205,338)"/>
<path d="M0 0 C4.875 3.625 4.875 3.625 6 7 C5.01 7 4.02 7 3 7 C3 7.66 3 8.32 3 9 C1.125 8.688 1.125 8.688 -1 8 C-1.66 7.01 -2.32 6.02 -3 5 C-2.34 4.67 -1.68 4.34 -1 4 C-0.348 1.975 -0.348 1.975 0 0 Z " fill="#233146" transform="translate(154,253)"/>
<path d="M0 0 C1.675 0.286 3.344 0.618 5 1 C5 2.65 5 4.3 5 6 C4.34 5.67 3.68 5.34 3 5 C2.546 5.66 2.093 6.32 1.625 7 C1.089 7.66 0.553 8.32 0 9 C-0.66 9 -1.32 9 -2 9 C-1.125 1.125 -1.125 1.125 0 0 Z " fill="#212D3C" transform="translate(208,151)"/>
<path d="M0 0 C0.99 0 1.98 0 3 0 C2.94 1.459 2.851 2.918 2.75 4.375 C2.704 5.187 2.657 5.999 2.609 6.836 C2 9 2 9 -0.047 10.289 C-1.014 10.641 -1.014 10.641 -2 11 C-2.25 3.375 -2.25 3.375 0 0 Z " fill="#F0F5F5" transform="translate(123,333)"/>
<path d="M0 0 C2.19 3.285 2.998 6.207 4 10 C3.01 10.33 2.02 10.66 1 11 C-3 4.375 -3 4.375 -3 1 C-2.01 0.67 -1.02 0.34 0 0 Z " fill="#E9EEF1" transform="translate(163,256)"/>
<path d="M0 0 C0.99 0.495 0.99 0.495 2 1 C2 1.66 2 2.32 2 3 C3.32 2.67 4.64 2.34 6 2 C6 4.97 6 7.94 6 11 C5.67 11 5.34 11 5 11 C4.67 12.98 4.34 14.96 4 17 C3.67 17 3.34 17 3 17 C2.927 15.987 2.927 15.987 2.852 14.953 C2.777 14.061 2.702 13.169 2.625 12.25 C2.555 11.368 2.486 10.487 2.414 9.578 C1.999 6.991 1.191 5.304 0 3 C0 2.01 0 1.02 0 0 Z " fill="#132032" transform="translate(247,223)"/>
<path d="M0 0 C0.99 0 1.98 0 3 0 C3.33 2.31 3.66 4.62 4 7 C2.02 7.99 2.02 7.99 0 9 C-0.99 8.34 -1.98 7.68 -3 7 C-1.125 1.125 -1.125 1.125 0 0 Z " fill="#F8F9FB" transform="translate(202,156)"/>
<path d="M0 0 C2.31 0.33 4.62 0.66 7 1 C4.095 3.421 1.369 5.316 -2 7 C-2.33 7.66 -2.66 8.32 -3 9 C-3.66 8.34 -4.32 7.68 -5 7 C-3.35 4.69 -1.7 2.38 0 0 Z " fill="#DBE0E8" transform="translate(217,150)"/>
<path d="M0 0 C0.33 0 0.66 0 1 0 C2.406 3.778 3.532 6.957 3 11 C1.625 13.312 1.625 13.312 0 15 C-0.66 15 -1.32 15 -2 15 C-1.34 10.05 -0.68 5.1 0 0 Z " fill="#D5D9E1" transform="translate(163,325)"/>
<path d="M0 0 C0 3.551 -0.542 5.752 -2 9 C-4.938 11.438 -4.938 11.438 -8 13 C-8.99 12.67 -9.98 12.34 -11 12 C-10.541 11.636 -10.082 11.273 -9.609 10.898 C-5.565 7.585 -2.675 4.493 0 0 Z " fill="#3A3D46" transform="translate(194,268)"/>
<path d="M0 0 C3.062 0.188 3.062 0.188 5.062 2.188 C4.072 2.518 3.083 2.847 2.062 3.188 C1.403 2.857 0.743 2.528 0.062 2.188 C-1.257 4.498 -2.577 6.808 -3.938 9.188 C-5.062 7.438 -5.062 7.438 -5.938 5.188 C-4.572 1.512 -3.977 0.254 0 0 Z " fill="#D9DEE3" transform="translate(150.9375,227.8125)"/>
<path d="M0 0 C0.245 0.614 0.49 1.227 0.742 1.859 C2.251 4.426 3.443 5.039 6.125 6.25 C6.849 6.585 7.574 6.92 8.32 7.266 C8.875 7.508 9.429 7.75 10 8 C10 8.33 10 8.66 10 9 C8.395 8.913 6.791 8.804 5.188 8.688 C3.848 8.6 3.848 8.6 2.48 8.512 C-0.327 7.933 -1.307 7.278 -3 5 C-3 3 -3 3 -1.5 1.375 C-1.005 0.921 -0.51 0.468 0 0 Z " fill="#1F2637" transform="translate(199,166)"/>
<path d="M0 0 C0.33 0.66 0.66 1.32 1 2 C3.527 2.656 3.527 2.656 6 3 C6.957 7.21 7.132 9.257 5 13 C4.159 11.4 3.328 9.795 2.5 8.188 C1.804 6.848 1.804 6.848 1.094 5.48 C0 3 0 3 0 0 Z " fill="#E4E9EC" transform="translate(143,143)"/>
<path d="M0 0 C2.281 3.421 2.219 4.682 2.125 8.688 C2.107 9.681 2.089 10.675 2.07 11.699 C2.036 12.838 2.036 12.838 2 14 C-0.934 12.582 -3.433 11.017 -6 9 C-5.34 8.67 -4.68 8.34 -4 8 C-2.866 5.983 -2.866 5.983 -2 4 C-1.67 5.32 -1.34 6.64 -1 8 C-0.174 5.108 0 3.113 0 0 Z " fill="#3F4955" transform="translate(212,164)"/>
<path d="M0 0 C1.361 0.124 1.361 0.124 2.75 0.25 C-1 7.125 -1 7.125 -3.25 8.25 C-3.91 7.26 -4.57 6.27 -5.25 5.25 C-5.91 4.92 -6.57 4.59 -7.25 4.25 C-4.839 1.283 -3.903 0.3 0 0 Z " fill="#162739" transform="translate(216.25,146.75)"/>
<path d="M0 0 C3.386 1.451 5.417 3.417 8 6 C8.66 6 9.32 6 10 6 C10.33 7.32 10.66 8.64 11 10 C6.033 8.729 3.281 6.957 0 3 C0 2.01 0 1.02 0 0 Z " fill="#1B2535" transform="translate(45,372)"/>
<path d="M0 0 C0.33 0 0.66 0 1 0 C1.394 2.352 1.765 4.705 2.125 7.062 C2.237 7.719 2.349 8.376 2.465 9.053 C3.202 14.042 2.633 17.348 1 22 C0.67 22 0.34 22 0 22 C0 14.74 0 7.48 0 0 Z " fill="#F7FBFC" transform="translate(129,274)"/>
<path d="M0 0 C1.485 0.99 1.485 0.99 3 2 C2.814 2.66 2.629 3.32 2.438 4 C1.87 7.893 2.407 11.114 3 15 C2.34 15 1.68 15 1 15 C-0.427 9.693 -1.4 5.461 0 0 Z " fill="#F6F9FC" transform="translate(204,252)"/>
<path d="M0 0 C-0.875 4.75 -0.875 4.75 -2 7 C-3.98 7 -5.96 7 -8 7 C-7.62 4.245 -7.193 3.18 -5.125 1.25 C-3 0 -3 0 0 0 Z " fill="#203041" transform="translate(249,200)"/>
<path d="M0 0 C0.66 0.33 1.32 0.66 2 1 C1.67 1.66 1.34 2.32 1 3 C1.66 3.33 2.32 3.66 3 4 C-2.625 8 -2.625 8 -6 8 C-5.67 7.01 -5.34 6.02 -5 5 C-5.33 4.01 -5.66 3.02 -6 2 C-4.35 2 -2.7 2 -1 2 C-0.67 1.34 -0.34 0.68 0 0 Z " fill="#EEEEF1" transform="translate(55,65)"/>
<path d="M0 0 C0.736 0.005 1.472 0.009 2.23 0.014 C4.029 0.025 5.827 0.043 7.625 0.062 C7.625 0.392 7.625 0.722 7.625 1.062 C6.395 1.153 6.395 1.153 5.141 1.246 C3.524 1.372 3.524 1.372 1.875 1.5 C0.808 1.581 -0.26 1.662 -1.359 1.746 C-4.243 1.976 -4.243 1.976 -6.469 2.594 C-8.741 3.153 -10.788 3.159 -13.125 3.125 C-13.924 3.116 -14.723 3.107 -15.547 3.098 C-16.15 3.086 -16.753 3.074 -17.375 3.062 C-12.043 -0.492 -6.196 -0.073 0 0 Z " fill="#4B5561" transform="translate(88.375,59.9375)"/>
<path d="M0 0 C0.99 0.66 1.98 1.32 3 2 C-1.022 4.968 -4.001 6.524 -9 7 C-9 6.01 -9 5.02 -9 4 C-7.886 3.711 -6.772 3.423 -5.625 3.125 C-1.997 2.308 -1.997 2.308 0 0 Z " fill="#161F2E" transform="translate(321,382)"/>
<path d="M0 0 C0.99 0 1.98 0 3 0 C4.067 3.2 3.948 4.885 3.562 8.188 C3.461 9.089 3.359 9.99 3.254 10.918 C3.17 11.605 3.086 12.292 3 13 C-0.224 8.164 -0.092 5.731 0 0 Z " fill="#F2F5F8" transform="translate(154,168)"/>
<path d="M0 0 C0.743 0.784 1.485 1.567 2.25 2.375 C4.544 4.565 6.122 5.827 9 7 C8.34 7.66 7.68 8.32 7 9 C6.357 11.069 6.357 11.069 6 13 C4.803 11.215 3.618 9.422 2.438 7.625 C1.446 6.128 1.446 6.128 0.434 4.602 C-0.039 3.743 -0.513 2.885 -1 2 C-0.67 1.34 -0.34 0.68 0 0 Z " fill="#1F2E3B" transform="translate(195,124)"/>
<path d="M0 0 C1.5 1.125 1.5 1.125 3 3 C3.188 6.188 3.188 6.188 3 9 C1.68 8.67 0.36 8.34 -1 8 C-1.33 6.35 -1.66 4.7 -2 3 C-1.34 3 -0.68 3 0 3 C0 2.01 0 1.02 0 0 Z " fill="#EFEEF3" transform="translate(132,121)"/>
<path d="M0 0 C1.98 0.495 1.98 0.495 4 1 C4.969 6.373 4.969 6.373 5 9 C3.562 11 3.562 11 2 12 C1.691 10.907 1.381 9.814 1.062 8.688 C0.417 6.446 -0.262 4.213 -1 2 C-0.67 1.34 -0.34 0.68 0 0 Z " fill="#F8F9FB" transform="translate(194,251)"/>
<path d="M0 0 C2.475 0.99 2.475 0.99 5 2 C5 2.99 5 3.98 5 5 C6.32 4.67 7.64 4.34 9 4 C9.33 4.66 9.66 5.32 10 6 C6.565 6.625 3.509 7 0 7 C0 6.34 0 5.68 0 5 C0.66 5 1.32 5 2 5 C1.34 3.35 0.68 1.7 0 0 Z " fill="#F8F7F6" transform="translate(232,197)"/>
<path d="M0 0 C2.846 1.276 5.181 2.415 7 5 C6.688 7.688 6.688 7.688 6 10 C5.34 10 4.68 10 4 10 C3.67 8.02 3.34 6.04 3 4 C2.34 4 1.68 4 1 4 C0.67 2.68 0.34 1.36 0 0 Z " fill="#E8EBEE" transform="translate(249,155)"/>
<path d="M0 0 C2.932 2.853 5.643 5.651 8 9 C7.67 9.66 7.34 10.32 7 11 C6.01 11 5.02 11 4 11 C2.539 8.353 2 7.106 2 4 C1.34 4 0.68 4 0 4 C0 2.68 0 1.36 0 0 Z " fill="#D5DAE1" transform="translate(187,117)"/>
<path d="M0 0 C0.99 0 1.98 0 3 0 C2.886 1.772 2.758 3.542 2.625 5.312 C2.521 6.792 2.521 6.792 2.414 8.301 C2 11 2 11 0 14 C-0.195 12.23 -0.381 10.459 -0.562 8.688 C-0.667 7.701 -0.771 6.715 -0.879 5.699 C-1 3 -1 3 0 0 Z M0 5 C1 9 1 9 1 9 Z " fill="#DCE2E7" transform="translate(132,357)"/>
<path d="M0 0 C0.66 0.33 1.32 0.66 2 1 C2.167 5.921 2.248 9.503 0 14 C-0.33 14 -0.66 14 -1 14 C-1.185 4.59 -1.185 4.59 0 0 Z " fill="#172334" transform="translate(121,321)"/>
<path d="M0 0 C1.484 0.423 2.962 0.864 4.438 1.312 C5.673 1.678 5.673 1.678 6.934 2.051 C7.956 2.521 7.956 2.521 9 3 C9.33 3.99 9.66 4.98 10 6 C8.014 5.447 6.029 4.893 4.043 4.34 C1.808 3.804 1.808 3.804 -1 5 C-0.67 3.35 -0.34 1.7 0 0 Z " fill="#152236" transform="translate(161,224)"/>
<path d="M0 0 C0.66 0 1.32 0 2 0 C2 0.66 2 1.32 2 2 C4.31 2 6.62 2 9 2 C9 2.33 9 2.66 9 3 C7.886 3.124 6.773 3.248 5.625 3.375 C1.969 3.647 1.969 3.647 0 6 C-2.125 5.625 -2.125 5.625 -4 5 C-2.719 3.293 -1.382 1.626 0 0 Z " fill="#303644" transform="translate(219,196)"/>
<path d="M0 0 C0.66 0.66 1.32 1.32 2 2 C1.34 3.65 0.68 5.3 0 7 C-0.66 7 -1.32 7 -2 7 C-2.33 7.99 -2.66 8.98 -3 10 C-3.99 10.495 -3.99 10.495 -5 11 C-5.33 9.35 -5.66 7.7 -6 6 C-4.68 5.34 -3.36 4.68 -2 4 C-2 3.01 -2 2.02 -2 1 C-1.34 0.67 -0.68 0.34 0 0 Z " fill="#ECECED" transform="translate(158,160)"/>
<path d="M0 0 C2.062 2.125 2.062 2.125 4 5 C3.75 8.312 3.75 8.312 3 11 C1.35 9.35 -0.3 7.7 -2 6 C-1.34 4.02 -0.68 2.04 0 0 Z " fill="#232D3F" transform="translate(339,86)"/>
<path d="M0 0 C3.941 5.912 3.077 12.298 2 19 C1.67 19 1.34 19 1 19 C0.255 12.627 -0.103 6.417 0 0 Z " fill="#F3F9FB" transform="translate(168,277)"/>
<path d="M0 0 C0.33 0.66 0.66 1.32 1 2 C1.99 1.67 2.98 1.34 4 1 C4.33 2.98 4.66 4.96 5 7 C2.69 7.66 0.38 8.32 -2 9 C-1.34 6.03 -0.68 3.06 0 0 Z " fill="#FAF9F9" transform="translate(134,247)"/>
<path d="M0 0 C-0.33 0.66 -0.66 1.32 -1 2 C-3.31 1.67 -5.62 1.34 -8 1 C-8 1.66 -8 2.32 -8 3 C-9.32 2.34 -10.64 1.68 -12 1 C-12 0.67 -12 0.34 -12 0 C-7.225 -1.685 -4.553 -2.483 0 0 Z " fill="#26354A" transform="translate(168,229)"/>
<path d="M0 0 C4.62 0 9.24 0 14 0 C13.67 0.99 13.34 1.98 13 3 C9.7 3 6.4 3 3 3 C3 2.34 3 1.68 3 1 C2.01 0.67 1.02 0.34 0 0 Z " fill="#D2D8DD" transform="translate(171,226)"/>
<path d="M0 0 C0 1.667 0 3.333 0 5 C-3.213 8.085 -6.75 8.938 -11 10 C-7.506 6.404 -3.889 3.165 0 0 Z " fill="#D1D6DC" transform="translate(210,222)"/>
<path d="M0 0 C0.66 0.33 1.32 0.66 2 1 C2 1.66 2 2.32 2 3 C2.66 3.66 3.32 4.32 4 5 C1.03 4.505 1.03 4.505 -2 4 C-2 4.66 -2 5.32 -2 6 C-3.65 6 -5.3 6 -7 6 C-2.25 1.125 -2.25 1.125 0 0 Z " fill="#E5ECEE" transform="translate(218,217)"/>
<path d="M0 0 C1.134 0.021 2.269 0.041 3.438 0.062 C3.438 0.393 3.438 0.722 3.438 1.062 C1.458 1.393 -0.523 1.722 -2.562 2.062 C-0.583 3.053 1.398 4.042 3.438 5.062 C0.112 6.171 -2.184 5.907 -5.562 5.062 C-4.437 0.078 -4.437 0.078 0 0 Z " fill="#C5CFD6" transform="translate(224.5625,198.9375)"/>
<path d="M0 0 C2.125 0.938 2.125 0.938 4 2 C4 2.99 4 3.98 4 5 C1.394 5.931 0.358 6.149 -2.25 5.062 C-2.827 4.712 -3.405 4.361 -4 4 C-3.34 3.67 -2.68 3.34 -2 3 C-2 2.34 -2 1.68 -2 1 C-1.34 0.67 -0.68 0.34 0 0 Z " fill="#E0E3E4" transform="translate(230,197)"/>
<path d="M0 0 C0.33 0.66 0.66 1.32 1 2 C1.99 2.33 2.98 2.66 4 3 C4.365 4.325 4.694 5.66 5 7 C6.488 9.207 6.488 9.207 8 11 C7.67 11.66 7.34 12.32 7 13 C5.818 11.785 4.655 10.552 3.5 9.312 C2.85 8.628 2.201 7.944 1.531 7.238 C-0.278 4.593 -0.308 3.138 0 0 Z " fill="#172637" transform="translate(172,93)"/>
<path d="M0 0 C2.5 2.312 2.5 2.312 5 5 C5 5.99 5 6.98 5 8 C4.67 8.33 4.34 8.66 4 9 C3.01 9 2.02 9 1 9 C-1.125 3.375 -1.125 3.375 0 0 Z " fill="#313C50" transform="translate(333,78)"/>
<path d="M0 0 C0.99 0.33 1.98 0.66 3 1 C-0.323 6.785 -0.323 6.785 -3.75 7.875 C-4.492 7.916 -5.235 7.957 -6 8 C-4.264 4.942 -2.615 2.366 0 0 Z " fill="#2D3543" transform="translate(46,78)"/>
<path d="M0 0 C0.33 1.65 0.66 3.3 1 5 C-0.98 5.66 -2.96 6.32 -5 7 C-5.188 4.625 -5.188 4.625 -5 2 C-2 0 -2 0 0 0 Z " fill="#F3F4F4" transform="translate(351,354)"/>
<path d="M0 0 C1.98 0.495 1.98 0.495 4 1 C4 1.99 4 2.98 4 4 C3.34 4 2.68 4 2 4 C1.876 4.969 1.752 5.939 1.625 6.938 C1.419 7.948 1.213 8.959 1 10 C0.01 10.495 0.01 10.495 -1 11 C-0.67 7.37 -0.34 3.74 0 0 Z " fill="#1D2F43" transform="translate(138,352)"/>
<path d="M0 0 C0.66 0 1.32 0 2 0 C1.308 5.418 0.242 10.682 -1 16 C-2.003 12.782 -1.994 10.214 -1.625 6.875 C-1.535 6.006 -1.445 5.137 -1.352 4.242 C-1 2 -1 2 0 0 Z " fill="#172234" transform="translate(144,312)"/>
<path d="M0 0 C0.99 0.66 1.98 1.32 3 2 C1.35 5.3 -0.3 8.6 -2 12 C-2.33 10.68 -2.66 9.36 -3 8 C-2.34 8 -1.68 8 -1 8 C-1.206 7.237 -1.412 6.474 -1.625 5.688 C-2 3 -2 3 0 0 Z " fill="#DDE4E8" transform="translate(227,270)"/>
<path d="M0 0 C2.64 0.33 5.28 0.66 8 1 C7.67 2.32 7.34 3.64 7 5 C6.34 4.67 5.68 4.34 5 4 C4.34 4.66 3.68 5.32 3 6 C2.34 5.67 1.68 5.34 1 5 C0.375 2.438 0.375 2.438 0 0 Z " fill="#E2E1DF" transform="translate(210,235)"/>
<path d="M0 0 C2.357 0.09 4.712 0.247 7.062 0.438 C8.353 0.539 9.643 0.641 10.973 0.746 C12.471 0.872 12.471 0.872 14 1 C14 1.33 14 1.66 14 2 C13.252 2.026 12.505 2.052 11.734 2.078 C5.593 2.287 5.593 2.287 0.312 5.062 C-0.121 5.702 -0.554 6.341 -1 7 C-1.043 5 -1.041 3 -1 1 C-0.67 0.67 -0.34 0.34 0 0 Z " fill="#D7DBE3" transform="translate(216,194)"/>
<path d="M0 0 C0.553 2.076 1 3.844 1 6 C0.01 6.33 -0.98 6.66 -2 7 C-3.667 8.5 -3.667 8.5 -5 10 C-5.33 9.01 -5.66 8.02 -6 7 C-4.785 5.176 -4.785 5.176 -3.062 3.312 C-2.497 2.69 -1.931 2.067 -1.348 1.426 C-0.903 0.955 -0.458 0.485 0 0 Z " fill="#D8DEE5" transform="translate(338,370)"/>
<path d="M0 0 C0.99 0.33 1.98 0.66 3 1 C2.67 3.31 2.34 5.62 2 8 C0.35 6.35 -1.3 4.7 -3 3 C-2.01 2.01 -1.02 1.02 0 0 Z " fill="#222C3E" transform="translate(42,364)"/>
<path d="M0 0 C2 4 2 4 3 7 C2 8 1 9 0 10 C-0.33 10.66 -0.66 11.32 -1 12 C-1.66 12 -2.32 12 -3 12 C-2.01 8.04 -1.02 4.08 0 0 Z " fill="#3B4755" transform="translate(217,303)"/>
<path d="M0 0 C0.66 0.33 1.32 0.66 2 1 C-0.475 4.96 -0.475 4.96 -3 9 C-3.33 8.34 -3.66 7.68 -4 7 C-4.66 6.67 -5.32 6.34 -6 6 C-2.25 1.125 -2.25 1.125 0 0 Z " fill="#E6EAEE" transform="translate(238,255)"/>
<path d="M0 0 C1.98 0 3.96 0 6 0 C7.607 3.215 7.057 6.436 7 10 C5 7 5 7 5 4 C4.34 4 3.68 4 3 4 C3 3.01 3 2.02 3 1 C2.01 0.67 1.02 0.34 0 0 Z " fill="#F7F8FC" transform="translate(188,162)"/>
<path d="M0 0 C4.29 0.66 8.58 1.32 13 2 C8.819 4.09 8.412 4.227 4.25 3.125 C3.451 2.921 2.652 2.718 1.828 2.508 C1.225 2.34 0.622 2.173 0 2 C0 1.34 0 0.68 0 0 Z " fill="#131E30" transform="translate(74,390)"/>
<path d="M0 0 C1.125 1.562 1.125 1.562 2 4 C1.125 7.75 1.125 7.75 0 11 C-0.66 11 -1.32 11 -2 11 C-3.149 7.447 -3.087 6.2 -1.562 2.688 C-1.047 1.801 -0.531 0.914 0 0 Z " fill="#253445" transform="translate(247,243)"/>
<path d="M0 0 C2.375 -0.188 2.375 -0.188 5 0 C5.66 0.99 6.32 1.98 7 3 C5.02 3.66 3.04 4.32 1 5 C0.34 4.01 -0.32 3.02 -1 2 C-0.67 1.34 -0.34 0.68 0 0 Z " fill="#DAE2E9" transform="translate(131,245)"/>
<path d="M0 0 C1.65 0 3.3 0 5 0 C5 0.66 5 1.32 5 2 C4.34 2 3.68 2 3 2 C3 2.66 3 3.32 3 4 C2.01 4 1.02 4 0 4 C-0.33 4.66 -0.66 5.32 -1 6 C-1.99 6.33 -2.98 6.66 -4 7 C-4 5.68 -4 4.36 -4 3 C-2.68 2.67 -1.36 2.34 0 2 C0 1.34 0 0.68 0 0 Z " fill="#12253B" transform="translate(212,202)"/>
<path d="M0 0 C2.762 2.762 2.579 5.207 3 9 C1.515 9.99 1.515 9.99 0 11 C-1.125 3.375 -1.125 3.375 0 0 Z " fill="#151E2B" transform="translate(210,162)"/>
<path d="M0 0 C0.33 1.32 0.66 2.64 1 4 C-6.75 3.25 -6.75 3.25 -9 1 C-6.043 -0.478 -3.258 -0.06 0 0 Z " fill="#2A3748" transform="translate(227,148)"/>
<path d="M0 0 C0.33 0 0.66 0 1 0 C1.33 1.98 1.66 3.96 2 6 C2.99 5.67 3.98 5.34 5 5 C4.34 7.31 3.68 9.62 3 12 C0.894 10.292 0.062 9.479 -0.293 6.738 C-0.258 5.938 -0.223 5.137 -0.188 4.312 C-0.16 3.504 -0.133 2.696 -0.105 1.863 C-0.071 1.248 -0.036 0.634 0 0 Z " fill="#111B32" transform="translate(32,341)"/>
<path d="M0 0 C0.33 0.66 0.66 1.32 1 2 C1.66 2 2.32 2 3 2 C2.67 4.31 2.34 6.62 2 9 C0.68 8.01 -0.64 7.02 -2 6 C-1.34 4.02 -0.68 2.04 0 0 Z " fill="#182838" transform="translate(219,301)"/>
<path d="M0 0 C1 2 1 2 0.547 3.91 C0.284 4.62 0.021 5.331 -0.25 6.062 C-0.629 7.132 -0.629 7.132 -1.016 8.223 C-2 10 -2 10 -5 11 C-5 6.461 -2.466 3.7 0 0 Z " fill="#353539" transform="translate(215,238)"/>
<path d="M0 0 C0.66 1.32 1.32 2.64 2 4 C-1 6 -1 6 -3.688 5.625 C-4.451 5.419 -5.214 5.213 -6 5 C-4.067 2.975 -2.368 1.579 0 0 Z " fill="#2D3B4B" transform="translate(195,222)"/>
<path d="M0 0 C0 0.99 0 1.98 0 3 C-6.152 2.414 -6.152 2.414 -8 2 C-8.33 1.34 -8.66 0.68 -9 0 C-5.675 -1.108 -3.378 -0.845 0 0 Z " fill="#F2F2F7" transform="translate(312,60)"/>
<path d="M0 0 C1.98 0 3.96 0 6 0 C2.308 3.538 -1.094 3.591 -6 4 C-6.33 3.34 -6.66 2.68 -7 2 C-4.69 2 -2.38 2 0 2 C0 1.34 0 0.68 0 0 Z " fill="#F4F7FC" transform="translate(302,393)"/>
<path d="M0 0 C0.562 1.938 0.562 1.938 1 4 C0.67 4.33 0.34 4.66 0 5 C-0.041 7.333 -0.042 9.667 0 12 C-0.99 12 -1.98 12 -3 12 C-3.295 6.977 -2.985 4.105 0 0 Z " fill="#1E2C3F" transform="translate(343,352)"/>
<path d="M0 0 C0.66 0 1.32 0 2 0 C2.293 5.957 2.293 5.957 2 8 C1.01 8.99 0.02 9.98 -1 11 C-0.67 7.37 -0.34 3.74 0 0 Z " fill="#182536" transform="translate(146,299)"/>
<path d="M0 0 C0.33 0 0.66 0 1 0 C1.312 2.812 1.312 2.812 1 6 C-1.5 7.875 -1.5 7.875 -4 9 C-3.3 5.732 -2.423 2.423 0 0 Z " fill="#E0E6EC" transform="translate(199,258)"/>
<path d="M0 0 C1.354 2.709 1.065 5.009 1 8 C-0.32 8 -1.64 8 -3 8 C-3.369 3.446 -3.369 3.446 -1.5 1.188 C-1.005 0.796 -0.51 0.404 0 0 Z " fill="#FAF8F4" transform="translate(150,232)"/>
<path d="M0 0 C1.033 2.788 1.045 3.868 0.062 6.75 C-0.288 7.493 -0.639 8.235 -1 9 C-2.32 8.67 -3.64 8.34 -5 8 C-3.625 5.5 -3.625 5.5 -2 3 C-1.34 3 -0.68 3 0 3 C0 2.01 0 1.02 0 0 Z " fill="#243343" transform="translate(205,208)"/>
<path d="M0 0 C0.99 0.66 1.98 1.32 3 2 C2.688 3.938 2.688 3.938 2 6 C1.01 6.33 0.02 6.66 -1 7 C-1 6.34 -1 5.68 -1 5 C-1.66 5 -2.32 5 -3 5 C-2.67 4.01 -2.34 3.02 -2 2 C-1.67 2.33 -1.34 2.66 -1 3 C-0.67 2.01 -0.34 1.02 0 0 Z " fill="#1F2F42" transform="translate(125,120)"/>
<path d="M0 0 C3.653 1.25 4.781 1.671 7 5 C7.125 7.688 7.125 7.688 7 10 C4.351 6.803 2.06 3.605 0 0 Z " fill="#E6ECF0" transform="translate(112,100)"/>
<path d="M0 0 C0.99 0.33 1.98 0.66 3 1 C1.607 4.367 0.021 5.986 -3 8 C-3.33 7.34 -3.66 6.68 -4 6 C-2.68 4.02 -1.36 2.04 0 0 Z " fill="#ECECF0" transform="translate(46,73)"/>
<path d="M0 0 C0.33 0 0.66 0 1 0 C1.366 3.938 1.302 5.565 -1 8.875 C-1.66 9.576 -2.32 10.277 -3 11 C-2.25 3.375 -2.25 3.375 0 0 Z " fill="#141F2F" transform="translate(223,289)"/>
<path d="M0 0 C0.33 0.66 0.66 1.32 1 2 C1.99 2.33 2.98 2.66 4 3 C4 4.32 4 5.64 4 7 C2.68 6.67 1.36 6.34 0 6 C-1.125 2.25 -1.125 2.25 0 0 Z " fill="#F1F1F4" transform="translate(227,264)"/>
<path d="M0 0 C1.502 3.003 1.093 5.791 1.062 9.125 C1.053 10.406 1.044 11.688 1.035 13.008 C1.024 13.995 1.012 14.983 1 16 C0.67 16 0.34 16 0 16 C-0.073 15.06 -0.073 15.06 -0.148 14.102 C-0.223 13.284 -0.298 12.467 -0.375 11.625 C-0.445 10.813 -0.514 10.001 -0.586 9.164 C-0.829 6.797 -0.829 6.797 -3 5 C-2.01 3.35 -1.02 1.7 0 0 Z " fill="#394652" transform="translate(125,248)"/>
<path d="M0 0 C1.134 0.021 2.269 0.041 3.438 0.062 C3.107 1.053 2.778 2.042 2.438 3.062 C1.118 2.732 -0.202 2.403 -1.562 2.062 C-2.222 3.713 -2.882 5.363 -3.562 7.062 C-3.893 7.062 -4.222 7.062 -4.562 7.062 C-4.605 5.063 -4.603 3.062 -4.562 1.062 C-3.562 0.062 -3.562 0.062 0 0 Z " fill="#CCD1D6" transform="translate(206.5625,250.9375)"/>
<path d="M0 0 C4.875 4.75 4.875 4.75 6 7 C3.625 6.75 3.625 6.75 1 6 C-0.375 4.062 -0.375 4.062 -1 2 C-0.67 1.34 -0.34 0.68 0 0 Z " fill="#E3E4E9" transform="translate(138,248)"/>
<path d="M0 0 C2.64 0 5.28 0 8 0 C8.33 0.99 8.66 1.98 9 3 C6.75 3.75 6.75 3.75 4 4 C1.688 2.062 1.688 2.062 0 0 Z " fill="#D5DAE3" transform="translate(200,169)"/>
<path d="M0 0 C0.66 0 1.32 0 2 0 C1.67 2.64 1.34 5.28 1 8 C0.01 8 -0.98 8 -2 8 C-2.33 6.68 -2.66 5.36 -3 4 C-2.34 3.67 -1.68 3.34 -1 3 C-0.67 2.01 -0.34 1.02 0 0 Z " fill="#202939" transform="translate(36,94)"/>
<path d="M0 0 C0.99 0 1.98 0 3 0 C1.875 2.972 0.777 5.334 -1 8 C-1.66 6.35 -2.32 4.7 -3 3 C-2.01 3 -1.02 3 0 3 C0 2.01 0 1.02 0 0 Z " fill="#E1E6EA" transform="translate(35,88)"/>
<path d="M0 0 C0.33 0 0.66 0 1 0 C1.25 2.312 1.25 2.312 1 5 C-1 6.812 -1 6.812 -3 8 C-3.66 7.67 -4.32 7.34 -5 7 C-4.192 5.831 -3.378 4.664 -2.562 3.5 C-2.11 2.85 -1.658 2.201 -1.191 1.531 C-0.798 1.026 -0.405 0.521 0 0 Z " fill="#303D4B" transform="translate(242,252)"/>
<path d="M0 0 C0 0.33 0 0.66 0 1 C-4.29 1 -8.58 1 -13 1 C-7.565 -1.717 -5.589 -2.639 0 0 Z " fill="#182734" transform="translate(189,235)"/>
<path d="M0 0 C2.97 0.33 5.94 0.66 9 1 C7.68 2.32 6.36 3.64 5 5 C3.062 4.188 3.062 4.188 1 3 C0.67 2.01 0.34 1.02 0 0 Z " fill="#142538" transform="translate(172,229)"/>
<path d="M0 0 C0.66 0 1.32 0 2 0 C1.67 1.32 1.34 2.64 1 4 C0.34 4 -0.32 4 -1 4 C-1 4.66 -1 5.32 -1 6 C-2.65 5.67 -4.3 5.34 -6 5 C-5.196 4.361 -4.391 3.721 -3.562 3.062 C-1.725 1.594 -1.725 1.594 0 0 Z " fill="#EAE9ED" transform="translate(238,192)"/>
<path d="M0 0 C0 0.99 0 1.98 0 3 C-4.343 7 -4.343 7 -7 7 C-6.67 5.68 -6.34 4.36 -6 3 C-5.34 3 -4.68 3 -4 3 C-3.67 2.34 -3.34 1.68 -3 1 C-2.01 0.67 -1.02 0.34 0 0 Z " fill="#141D2E" transform="translate(46,83)"/>
<path d="M0 0 C0.99 0 1.98 0 3 0 C4.461 2.647 5 3.894 5 7 C3.062 6.312 3.062 6.312 1 5 C0.25 2.375 0.25 2.375 0 0 Z M-1 5 C1 6 1 6 1 6 Z " fill="#1B2C45" transform="translate(329,80)"/>
<path d="M0 0 C0.33 0 0.66 0 1 0 C0.67 4.62 0.34 9.24 0 14 C-0.33 14 -0.66 14 -1 14 C-1.221 12.043 -1.427 10.084 -1.625 8.125 C-1.741 7.034 -1.857 5.944 -1.977 4.82 C-1.984 3.89 -1.992 2.959 -2 2 C-1.34 1.34 -0.68 0.68 0 0 Z " fill="#3C4757" transform="translate(167,298)"/>
<path d="M0 0 C0 2.798 -0.372 4.979 -1 7.688 C-1.186 8.496 -1.371 9.304 -1.562 10.137 C-1.707 10.752 -1.851 11.366 -2 12 C-2.66 12 -3.32 12 -4 12 C-3.913 10.374 -3.805 8.749 -3.688 7.125 C-3.629 6.22 -3.571 5.315 -3.512 4.383 C-3 2 -3 2 0 0 Z " fill="#181B22" transform="translate(202,286)"/>
<path d="M0 0 C0.33 1.98 0.66 3.96 1 6 C0.01 6.495 0.01 6.495 -1 7 C-1 6.34 -1 5.68 -1 5 C-1.66 5 -2.32 5 -3 5 C-3.33 3.68 -3.66 2.36 -4 1 C-2 0 -2 0 0 0 Z " fill="#1B2E46" transform="translate(162,266)"/>
<path d="M0 0 C0 0.33 0 0.66 0 1 C-1.134 1.124 -2.269 1.248 -3.438 1.375 C-5.201 1.684 -5.201 1.684 -7 2 C-7.33 2.66 -7.66 3.32 -8 4 C-8.33 2.68 -8.66 1.36 -9 0 C-5.522 -1.159 -3.541 -0.708 0 0 Z " fill="#162636" transform="translate(193,228)"/>
<path d="M0 0 C0.66 0 1.32 0 2 0 C2.33 2.64 2.66 5.28 3 8 C2.34 8 1.68 8 1 8 C-1 6 -1 6 -2 4 C-1.062 1.875 -1.062 1.875 0 0 Z " fill="#F7F8FC" transform="translate(244,224)"/>
<path d="M0 0 C0.66 0 1.32 0 2 0 C2 0.99 2 1.98 2 3 C2.66 3 3.32 3 4 3 C4 3.66 4 4.32 4 5 C2.02 5 0.04 5 -2 5 C-2 4.01 -2 3.02 -2 2 C-1.34 2 -0.68 2 0 2 C0 1.34 0 0.68 0 0 Z " fill="#203147" transform="translate(217,202)"/>
<path d="M0 0 C0.33 0 0.66 0 1 0 C1 3 1 6 1 9 C0.01 9 -0.98 9 -2 9 C-2.33 7.68 -2.66 6.36 -3 5 C-2.01 4.67 -1.02 4.34 0 4 C0 2.68 0 1.36 0 0 Z " fill="#13273E" transform="translate(262,183)"/>
<path d="M0 0 C0.66 0 1.32 0 2 0 C3.125 3.75 3.125 3.75 2 6 C1.01 6 0.02 6 -1 6 C-1.33 4.68 -1.66 3.36 -2 2 C-1.34 2 -0.68 2 0 2 C0 1.34 0 0.68 0 0 Z " fill="#1A2C3F" transform="translate(210,177)"/>
<path d="M0 0 C3 1 3 1 4.188 2.75 C5.108 5.3 5.149 7.309 5 10 C4.67 9.01 4.34 8.02 4 7 C3.34 7 2.68 7 2 7 C1.34 4.69 0.68 2.38 0 0 Z " fill="#162231" transform="translate(143,149)"/>
<path d="M0 0 C1.32 0.33 2.64 0.66 4 1 C4.33 2.65 4.66 4.3 5 6 C3.68 6 2.36 6 1 6 C0.67 4.02 0.34 2.04 0 0 Z " fill="#14273B" transform="translate(201,131)"/>
<path d="M0 0 C1.98 0.99 1.98 0.99 4 2 C4 2.66 4 3.32 4 4 C4.66 4.33 5.32 4.66 6 5 C5.67 5.66 5.34 6.32 5 7 C5.66 7 6.32 7 7 7 C6.67 7.99 6.34 8.98 6 10 C3.263 7.636 2.213 5.378 1 2 C0.67 1.34 0.34 0.68 0 0 Z " fill="#203143" transform="translate(176,99)"/>
<path d="M0 0 C1.32 0.33 2.64 0.66 4 1 C4 1.99 4 2.98 4 4 C3.34 4 2.68 4 2 4 C1.67 4.66 1.34 5.32 1 6 C0.01 5.34 -0.98 4.68 -2 4 C-1.34 2.68 -0.68 1.36 0 0 Z " fill="#122135" transform="translate(311,65)"/>
<path d="M0 0 C0.99 0.33 1.98 0.66 3 1 C3.33 1.99 3.66 2.98 4 4 C2.25 4.688 2.25 4.688 0 5 C-2.25 3.562 -2.25 3.562 -4 2 C-2.68 2 -1.36 2 0 2 C0 1.34 0 0.68 0 0 Z " fill="#232F41" transform="translate(310,386)"/>
<path d="M0 0 C-0.66 1.32 -1.32 2.64 -2 4 C-3.65 3.67 -5.3 3.34 -7 3 C-7 2.34 -7 1.68 -7 1 C-4.537 -0.231 -2.72 -0.072 0 0 Z " fill="#152135" transform="translate(74,386)"/>
<path d="M0 0 C0.66 0.33 1.32 0.66 2 1 C1 2.938 1 2.938 -1 5 C-3.699 5.665 -6.206 5.817 -9 6 C-7.733 3.466 -6.569 3.068 -4.062 1.812 C-3.352 1.448 -2.642 1.083 -1.91 0.707 C-1.28 0.474 -0.649 0.24 0 0 Z " fill="#C4C8CC" transform="translate(323,384)"/>
<path d="M0 0 C2.97 0.495 2.97 0.495 6 1 C4.688 3 4.688 3 3 5 C2.01 5 1.02 5 0 5 C0 3.35 0 1.7 0 0 Z " fill="#F3F8FC" transform="translate(115,370)"/>
<path d="M0 0 C1.32 0 2.64 0 4 0 C3.67 2.31 3.34 4.62 3 7 C2.01 6.34 1.02 5.68 0 5 C-0.188 2.375 -0.188 2.375 0 0 Z " fill="#DCE1E7" transform="translate(140,309)"/>
<path d="M0 0 C0.66 0.33 1.32 0.66 2 1 C1.01 2.98 0.02 4.96 -1 7 C-1.99 7 -2.98 7 -4 7 C-4 5.68 -4 4.36 -4 3 C-3.01 3 -2.02 3 -1 3 C-0.67 2.01 -0.34 1.02 0 0 Z " fill="#F8F8F8" transform="translate(188,279)"/>
<path d="M0 0 C0.99 0 1.98 0 3 0 C3.33 1.32 3.66 2.64 4 4 C3.01 4.33 2.02 4.66 1 5 C1 4.34 1 3.68 1 3 C0.34 3 -0.32 3 -1 3 C-1 3.66 -1 4.32 -1 5 C-1.66 4.67 -2.32 4.34 -3 4 C-1.688 2 -1.688 2 0 0 Z " fill="#B4BAC5" transform="translate(196,270)"/>
<path d="M0 0 C1.32 0.33 2.64 0.66 4 1 C4 2.98 4 4.96 4 7 C2 5.188 2 5.188 0 3 C0 2.01 0 1.02 0 0 Z " fill="#E2E8ED" transform="translate(146,240)"/>
<path d="M0 0 C1.65 0 3.3 0 5 0 C4.34 1.98 3.68 3.96 3 6 C1.68 4.68 0.36 3.36 -1 2 C-0.67 1.34 -0.34 0.68 0 0 Z " fill="#E5E6E6" transform="translate(196,157)"/>
<path d="M0 0 C-0.398 2.886 -0.79 3.822 -3.062 5.75 C-3.702 6.162 -4.341 6.575 -5 7 C-5.33 5.35 -5.66 3.7 -6 2 C-2.25 0 -2.25 0 0 0 Z " fill="#324456" transform="translate(214,144)"/>
<path d="M0 0 C1.333 2.667 0.671 4.167 0 7 C-1.32 6.34 -2.64 5.68 -4 5 C-3.688 3.062 -3.688 3.062 -3 1 C-2.01 0.67 -1.02 0.34 0 0 Z " fill="#172839" transform="translate(198,120)"/>
<path d="M0 0 C1.456 4.521 0.27 7.516 -1 12 C-1.33 12 -1.66 12 -2 12 C-2 8.7 -2 5.4 -2 2 C-1.34 2 -0.68 2 0 2 C0 1.34 0 0.68 0 0 Z " fill="#121A2B" transform="translate(34,100)"/>
<path d="M0 0 C3.356 1.389 5.073 2.917 7 6 C7 6.66 7 7.32 7 8 C6.01 8 5.02 8 4 8 C3.897 7.381 3.794 6.763 3.688 6.125 C3.125 3.635 3.125 3.635 0 2 C0 1.34 0 0.68 0 0 Z " fill="#313D49" transform="translate(109,99)"/>
<path d="M0 0 C-0.33 0.66 -0.66 1.32 -1 2 C-0.01 2.33 0.98 2.66 2 3 C-4.625 2.25 -4.625 2.25 -8 0 C-4.713 -0.8 -3.29 -1.097 0 0 Z " fill="#3F4957" transform="translate(75,390)"/>
<path d="M0 0 C0.99 0 1.98 0 3 0 C3.33 0.99 3.66 1.98 4 3 C3.01 3.99 2.02 4.98 1 6 C0.34 4.35 -0.32 2.7 -1 1 C-0.67 0.67 -0.34 0.34 0 0 Z " fill="#282F42" transform="translate(36,357)"/>
<path d="M0 0 C0.66 0 1.32 0 2 0 C1.34 2.97 0.68 5.94 0 9 C-2 6 -2 6 -2 2 C-1.34 2 -0.68 2 0 2 C0 1.34 0 0.68 0 0 Z " fill="#E6ECF2" transform="translate(214,308)"/>
<path d="M0 0 C1.98 0.99 1.98 0.99 4 2 C3.67 3.98 3.34 5.96 3 8 C2.34 7.67 1.68 7.34 1 7 C0.593 4.678 0.256 2.343 0 0 Z " fill="#D5DCE1" transform="translate(155,210)"/>
<path d="M0 0 C0.99 0.33 1.98 0.66 3 1 C3.688 3.062 3.688 3.062 4 5 C3.01 5.495 3.01 5.495 2 6 C2 5.34 2 4.68 2 4 C0.68 4 -0.64 4 -2 4 C-2 3.34 -2 2.68 -2 2 C-1.34 2 -0.68 2 0 2 C0 1.34 0 0.68 0 0 Z " fill="#FAF7F7" transform="translate(239,194)"/>
<path d="M0 0 C0.99 0.33 1.98 0.66 3 1 C0.75 3.062 0.75 3.062 -2 5 C-4.312 4.75 -4.312 4.75 -6 4 C-3.188 1.938 -3.188 1.938 0 0 Z " fill="#646366" transform="translate(236,191)"/>
<path d="M0 0 C3 1 3 1 4 3 C2.02 3.66 0.04 4.32 -2 5 C-2.33 4.01 -2.66 3.02 -3 2 C-2.01 1.34 -1.02 0.68 0 0 Z " fill="#F0EEED" transform="translate(235,188)"/>
<path d="M0 0 C2 1 2 1 2.633 2.848 C2.795 3.579 2.958 4.309 3.125 5.062 C3.293 5.796 3.46 6.529 3.633 7.285 C3.754 7.851 3.875 8.417 4 9 C2.68 8.34 1.36 7.68 0 7 C0 4.69 0 2.38 0 0 Z " fill="#4C5561" transform="translate(148,156)"/>
<path d="M0 0 C0.66 0 1.32 0 2 0 C3.354 2.709 3.065 5.009 3 8 C1 6.188 1 6.188 -1 4 C-1 1 -1 1 0 0 Z " fill="#EAEBEF" transform="translate(203,153)"/>
<path d="M0 0 C1.32 0 2.64 0 4 0 C4 1.65 4 3.3 4 5 C2.68 5 1.36 5 0 5 C-0.33 4.34 -0.66 3.68 -1 3 C-0.67 2.01 -0.34 1.02 0 0 Z " fill="#FAF8F8" transform="translate(162,90)"/>
<path d="M0 0 C1.32 0.33 2.64 0.66 4 1 C4 2.65 4 4.3 4 6 C2.02 5.01 0.04 4.02 -2 3 C-1.34 2.01 -0.68 1.02 0 0 Z " fill="#DEE2E6" transform="translate(321,65)"/>
<path d="M0 0 C3.344 0.557 6.033 1.352 9 3 C6.188 3.688 6.188 3.688 3 4 C1.125 2.625 1.125 2.625 0 1 C0 0.67 0 0.34 0 0 Z " fill="#F2F8FB" transform="translate(73,393)"/>
<path d="M0 0 C2 2 2 2 2.125 5.125 C2.084 6.074 2.043 7.022 2 8 C1.34 8 0.68 8 0 8 C-0.381 5.674 -0.713 3.339 -1 1 C-0.67 0.67 -0.34 0.34 0 0 Z " fill="#1D2F46" transform="translate(115,343)"/>
<path d="M0 0 C0.99 0 1.98 0 3 0 C2.34 2.97 1.68 5.94 1 9 C0.67 9 0.34 9 0 9 C0 6.03 0 3.06 0 0 Z " fill="#CFD6DE" transform="translate(219,290)"/>
<path d="M0 0 C0.33 0 0.66 0 1 0 C1 1.98 1 3.96 1 6 C-0.65 6 -2.3 6 -4 6 C-3.67 4.68 -3.34 3.36 -3 2 C-2.34 2 -1.68 2 -1 2 C-0.67 1.34 -0.34 0.68 0 0 Z " fill="#16304B" transform="translate(160,281)"/>
<path d="M0 0 C0.33 0 0.66 0 1 0 C1 1.65 1 3.3 1 5 C0.34 5 -0.32 5 -1 5 C-1.33 5.99 -1.66 6.98 -2 8 C-3.125 4.25 -3.125 4.25 -2 2 C-1.34 2 -0.68 2 0 2 C0 1.34 0 0.68 0 0 Z " fill="#192735" transform="translate(156,276)"/>
<path d="M0 0 C1.431 2.862 0.6 4.934 0 8 C-3 4.375 -3 4.375 -3 1 C-2.01 0.67 -1.02 0.34 0 0 Z " fill="#E9ECED" transform="translate(163,256)"/>
<path d="M0 0 C0.928 1.176 0.928 1.176 1.875 2.375 C3.899 4.968 3.899 4.968 6 7 C3 7 3 7 0.812 5 C0.214 4.34 -0.384 3.68 -1 3 C-0.67 2.01 -0.34 1.02 0 0 Z " fill="#1A2635" transform="translate(144,251)"/>
<path d="M0 0 C1.98 0 3.96 0 6 0 C6 0.99 6 1.98 6 3 C4.02 3.33 2.04 3.66 0 4 C0 2.68 0 1.36 0 0 Z " fill="#EEF2F5" transform="translate(228,218)"/>
<path d="M0 0 C2.25 0.25 2.25 0.25 4 1 C1.688 3.062 1.688 3.062 -1 5 C-1.99 4.67 -2.98 4.34 -4 4 C-2.25 1.938 -2.25 1.938 0 0 Z " fill="#DFE4EA" transform="translate(245,198)"/>
<path d="M0 0 C1.98 0.495 1.98 0.495 4 1 C3.67 2.32 3.34 3.64 3 5 C1.68 4.67 0.36 4.34 -1 4 C-0.67 2.68 -0.34 1.36 0 0 Z " fill="#F3F7F4" transform="translate(200,159)"/>
<path d="M0 0 C3.3 0.33 6.6 0.66 10 1 C9.67 1.99 9.34 2.98 9 4 C5.853 3.301 2.974 2.239 0 1 C0 0.67 0 0.34 0 0 Z " fill="#464548" transform="translate(185,158)"/>
<path d="M0 0 C2.152 3.228 2.201 4.284 2 8 C1.34 8 0.68 8 0 8 C-0.66 5.69 -1.32 3.38 -2 1 C-1.34 0.67 -0.68 0.34 0 0 Z " fill="#F7F9FB" transform="translate(150,151)"/>
<path d="M0 0 C-0.99 0.66 -1.98 1.32 -3 2 C-2.67 2.66 -2.34 3.32 -2 4 C-3.65 4 -5.3 4 -7 4 C-7 3.01 -7 2.02 -7 1 C-4.537 -0.231 -2.72 -0.072 0 0 Z " fill="#131D30" transform="translate(65,67)"/>
</svg>